<?xml version="1.0" encoding="UTF-8"?>
<svg id="_Слой_1" data-name="Слой 1" xmlns="http://www.w3.org/2000/svg" width="1920" height="1080" xmlns:xlink="http://www.w3.org/1999/xlink" viewBox="0 0 1920 1080">
  <defs>
    <style>
      .cls-1 {
        fill: url(#_Áåçûìÿííûé_ãðàäèåíò_14);
      }

      .cls-1, .cls-2, .cls-3, .cls-4, .cls-5 {
        stroke-width: 0px;
      }

      .cls-6 {
        isolation: isolate;
      }

      .cls-2 {
        fill: url(#_Áåçûìÿííûé_ãðàäèåíò_1580);
      }

      .cls-3 {
        fill: none;
      }

      .cls-4 {
        fill: #087df2;
      }

      .cls-7 {
        clip-path: url(#clippath);
      }

      .cls-5 {
        fill: url(#_Áåçûìÿííûé_ãðàäèåíò_1509);
      }
    </style>
    <clipPath id="clippath">
      <rect id="_0" data-name="0" class="cls-3" width="1920" height="1080"/>
    </clipPath>
    <linearGradient id="_Áåçûìÿííûé_ãðàäèåíò_14" data-name="Áåçûìÿííûé ãðàäèåíò 14" x1="1409.46" y1="896.86" x2="1630.61" y2="896.86" gradientUnits="userSpaceOnUse">
      <stop offset=".4" stop-color="#beb9b0"/>
      <stop offset=".66" stop-color="#e9e4db"/>
    </linearGradient>
    <linearGradient id="_Áåçûìÿííûé_ãðàäèåíò_1509" data-name="Áåçûìÿííûé ãðàäèåíò 1509" x1="1409.61" y1="837.76" x2="1630.61" y2="837.76" gradientUnits="userSpaceOnUse">
      <stop offset="0" stop-color="#f6f2ed"/>
      <stop offset="1" stop-color="#fdfaf5"/>
    </linearGradient>
    <linearGradient id="_Áåçûìÿííûé_ãðàäèåíò_1580" data-name="Áåçûìÿííûé ãðàäèåíò 1580" x1="1520.11" y1="785.48" x2="1520.11" y2="890.04" gradientUnits="userSpaceOnUse">
      <stop offset="0" stop-color="#0061ed"/>
      <stop offset=".17" stop-color="#026aee"/>
      <stop offset=".44" stop-color="#0982f3"/>
      <stop offset=".79" stop-color="#14aafa"/>
      <stop offset="1" stop-color="#1cc6ff"/>
    </linearGradient>
  </defs>
  <g class="cls-7">
    <g>
      <g>
        <g>
          <g class="cls-6">
            <path class="cls-1" d="m1409.61,837.7l-.15,54.25c0,2.83,1.86,5.67,5.6,7.82l91.86,53.04c7.41,4.28,19.4,4.28,26.77,0l91.26-53.04c3.66-2.13,5.5-4.92,5.51-7.72l.15-54.25-221-.11Z"/>
            <path class="cls-5" d="m1625.04,830c7.41,4.28,7.43,11.24.07,15.52l-91.27,53.04c-7.37,4.28-19.35,4.28-26.77,0l-91.86-53.04c-7.41-4.28-7.47-11.24-.11-15.52l91.27-53.04c7.37-4.28,19.39-4.28,26.81,0l91.86,53.04Z"/>
          </g>
          <path class="cls-2" d="m1605.81,831.42c6.06,3.5,6.07,9.18.05,12.67l-74.54,43.32c-6.02,3.5-15.81,3.5-21.86,0l-75.03-43.32c-6.06-3.5-6.11-9.18-.09-12.67l74.54-43.32c6.02-3.5,15.84-3.5,21.9,0l75.03,43.32Z"/>
        </g>
        <path class="cls-4" d="m2032.88,1057.71c-.6,0-1.21-.15-1.77-.48l-251.51-150.99c-11.19-6.46-25.09-6.46-36.28,0l-54.8,31.64c-14.27,8.24-32,8.24-46.28,0l-62.29-35.96c-1.69-.98-2.27-3.14-1.3-4.84.98-1.69,3.14-2.28,4.84-1.3l62.29,35.96c12.09,6.98,27.1,6.98,39.19,0l54.8-31.64c13.38-7.72,29.99-7.72,43.37,0l251.51,150.99c1.69.98,2.27,3.14,1.3,4.84-.66,1.14-1.85,1.77-3.07,1.77Z"/>
        <path class="cls-4" d="m1613.06,1226.84c-.6,0-1.21-.15-1.77-.47l-157.61-90.99c-9.26-5.35-14.8-14.93-14.8-25.63,0-10.7,5.53-20.29,14.8-25.64l52.82-30.49c3.85-2.22,6.14-6.2,6.14-10.64s-2.3-8.42-6.14-10.64l-104.68-60.43c-8.09-4.67-12.92-13.04-12.92-22.38s4.83-17.71,12.92-22.38l54.28-31.34c1.7-.98,3.86-.4,4.84,1.3.98,1.69.4,3.86-1.3,4.84l-54.28,31.34c-5.87,3.39-9.38,9.46-9.38,16.25s3.51,12.86,9.38,16.25l104.68,60.43c6.06,3.5,9.69,9.77,9.69,16.78s-3.62,13.27-9.69,16.78l-52.82,30.5c-7.05,4.07-11.26,11.36-11.26,19.5s4.21,15.42,11.26,19.49l157.61,90.99c1.69.98,2.27,3.14,1.3,4.84-.66,1.14-1.85,1.77-3.07,1.77Z"/>
      </g>
      <path class="cls-4" d="m1594.6,891.43c0,7.11-5.76,16.2-12.87,20.3-7.11,4.1-12.87,1.67-12.87-5.44s5.76-16.2,12.87-20.3c7.11-4.1,12.87-1.67,12.87,5.44Z"/>
      <path class="cls-4" d="m1446.2,890.42c0,7.11,5.76,16.2,12.87,20.3,7.11,4.1,12.87,1.67,12.87-5.44s-5.76-16.2-12.87-20.3c-7.11-4.1-12.87-1.67-12.87,5.44Z"/>
    </g>
  </g>
</svg>