<?xml version="1.0" encoding="utf-8"?>
<!-- Generator: Adobe Illustrator 28.0.0, SVG Export Plug-In . SVG Version: 6.00 Build 0)  -->
<svg version="1.1" id="Слой_1" xmlns="http://www.w3.org/2000/svg" xmlns:xlink="http://www.w3.org/1999/xlink" x="0px" y="0px"
	 viewBox="0 0 1920.81 1080.86" style="enable-background:new 0 0 1920.81 1080.86;" xml:space="preserve">
<style type="text/css">
	.st0{fill:#4685FF;}
	.st1{fill:#0647AA;}
	.st2{fill:#83BEFF;}
</style>
<g>
	<polygon class="st0" points="290.53,787.32 266.45,801.23 266.45,777.15 290.53,763.24 	"/>
	<polygon class="st0" points="1672.86,333.33 1645.28,349.77 1644.89,321.97 1672.47,305.53 	"/>
	<polygon class="st0" points="1763.02,406.97 1749.12,415 1749.12,401.09 1763.02,393.07 	"/>
	<polygon class="st0" points="544.24,751.71 510.46,771.21 510.46,737.43 544.24,717.93 	"/>
	<polygon class="st1" points="1633.92,318.37 1587.16,346.23 1586.51,299.1 1633.26,271.24 	"/>
	<polygon class="st0" points="212.89,718.21 200.85,725.16 200.85,713.12 212.89,706.17 	"/>
	<polygon class="st0" points="571.23,700.39 546.61,714.6 546.61,689.99 571.23,675.78 	"/>
	<polygon class="st1" points="853.05,804.08 825.24,820.13 825.24,792.33 853.05,776.28 	"/>
	<polygon class="st2" points="1709.88,211.95 1682.08,228 1682.08,200.19 1709.88,184.14 	"/>
	<polygon class="st0" points="814.52,698.55 786.72,714.6 786.72,686.8 814.52,670.75 	"/>
	<polygon class="st0" points="1708.27,512.17 1676.01,530.8 1676.01,498.53 1708.27,479.91 	"/>
	<polygon class="st0" points="853.05,720.7 839.14,728.73 839.14,714.82 853.05,706.8 	"/>
</g>
</svg>
