<?xml version="1.0" encoding="utf-8"?>
<!-- Generator: Adobe Illustrator 28.0.0, SVG Export Plug-In . SVG Version: 6.00 Build 0)  -->
<svg version="1.1" id="Слой_1" xmlns="http://www.w3.org/2000/svg" xmlns:xlink="http://www.w3.org/1999/xlink" x="0px" y="0px"
	 viewBox="0 0 1920.81 1080.86" style="enable-background:new 0 0 1920.81 1080.86;" xml:space="preserve">
<style type="text/css">
	.st0{fill:#4685FF;}
	.st1{fill:#0647AA;}
	.st2{fill:#83BEFF;}
</style>
<g>
	<polygon class="st0" points="255.58,510.83 231.5,524.73 231.5,500.65 255.58,486.75 	"/>
	<polygon class="st0" points="1516.93,673.03 1489.35,689.46 1488.97,661.66 1516.55,645.23 	"/>
	<polygon class="st0" points="1607.09,746.66 1593.19,754.69 1593.19,740.79 1607.09,732.76 	"/>
	<polygon class="st0" points="559.98,345.72 520.23,368.67 520.23,328.92 559.98,305.97 	"/>
	<polygon class="st1" points="1477.99,658.06 1431.24,685.92 1430.59,638.79 1477.34,610.93 	"/>
	<polygon class="st1" points="1068.87,125.77 1041.07,141.83 1041.07,114.02 1068.87,97.97 	"/>
	<polygon class="st1" points="1519.3,341.46 1505.4,349.49 1505.4,335.59 1519.3,327.56 	"/>
	<polygon class="st0" points="1134.64,360.19 1120.74,368.21 1120.74,354.31 1134.64,346.29 	"/>
	<polygon class="st0" points="1247.52,305.81 1219.71,321.86 1219.71,294.06 1247.52,278.01 	"/>
	<polygon class="st0" points="1693.47,619.29 1679.57,627.31 1679.57,613.41 1693.47,605.38 	"/>
	<polygon class="st0" points="177.94,610.41 165.9,617.37 165.9,605.32 177.94,598.37 	"/>
	<polygon class="st0" points="507.59,401.12 479.79,417.17 479.79,389.36 507.59,373.31 	"/>
	<polygon class="st0" points="1013.37,197.15 999.47,205.17 999.47,191.27 1013.37,183.24 	"/>
	<polygon class="st2" points="1650.66,766.68 1622.86,782.73 1622.86,754.93 1650.66,738.87 	"/>
	<polygon class="st2" points="1112.79,411.17 1084.99,427.22 1084.99,399.42 1112.79,383.36 	"/>
	<polygon class="st1" points="848.11,490.58 820.31,506.63 820.31,478.83 848.11,462.78 	"/>
	<polygon class="st0" points="1754.91,406.87 1741.01,414.9 1741.01,401 1754.91,392.97 	"/>
	<polygon class="st2" points="1553.96,551.64 1526.15,567.69 1526.15,539.89 1553.96,523.84 	"/>
	<polygon class="st0" points="809.58,385.05 781.78,401.1 781.78,373.3 809.58,357.25 	"/>
	<polygon class="st0" points="1552.34,851.86 1520.08,870.49 1520.08,838.23 1552.34,819.6 	"/>
	<polygon class="st0" points="848.11,407.2 834.21,415.23 834.21,401.32 848.11,393.3 	"/>
	<polygon class="st0" points="1653.37,1019.27 1639.47,1027.3 1639.47,1013.4 1653.37,1005.37 	"/>
	<polygon class="st2" points="1643.18,529.7 1629.28,537.72 1629.28,523.82 1643.18,515.8 	"/>
	<polygon class="st2" points="894.31,206.67 880.41,214.69 880.41,200.79 894.31,192.76 	"/>
</g>
</svg>
