<?xml version="1.0" encoding="UTF-8"?>
<svg id="_Слой_1" data-name="Слой 1" xmlns="http://www.w3.org/2000/svg" width="200" height="60.58" xmlns:xlink="http://www.w3.org/1999/xlink" viewBox="0 0 200 60.58">
  <defs>
    <style>
      .cls-1 {
        clip-path: url(#clippath-20);
      }

      .cls-2 {
        clip-path: url(#clippath-11);
      }

      .cls-3 {
        clip-path: url(#clippath-16);
      }

      .cls-4 {
        clip-path: url(#clippath-2);
      }

      .cls-5 {
        clip-path: url(#clippath-13);
      }

      .cls-6 {
        clip-path: url(#clippath-15);
      }

      .cls-7 {
        clip-path: url(#clippath-6);
      }

      .cls-8 {
        fill: #e20e17;
      }

      .cls-8, .cls-9 {
        stroke-width: 0px;
      }

      .cls-9 {
        fill: none;
      }

      .cls-10 {
        clip-path: url(#clippath-7);
      }

      .cls-11 {
        clip-path: url(#clippath-21);
      }

      .cls-12 {
        clip-path: url(#clippath-1);
      }

      .cls-13 {
        clip-path: url(#clippath-4);
      }

      .cls-14 {
        clip-path: url(#clippath-12);
      }

      .cls-15 {
        clip-path: url(#clippath-9);
      }

      .cls-16 {
        clip-path: url(#clippath);
      }

      .cls-17 {
        clip-path: url(#clippath-19);
      }

      .cls-18 {
        clip-path: url(#clippath-3);
      }

      .cls-19 {
        clip-path: url(#clippath-8);
      }

      .cls-20 {
        clip-path: url(#clippath-18);
      }

      .cls-21 {
        clip-path: url(#clippath-14);
      }

      .cls-22 {
        clip-path: url(#clippath-17);
      }

      .cls-23 {
        clip-path: url(#clippath-5);
      }

      .cls-24 {
        clip-path: url(#clippath-10);
      }
    </style>
    <clipPath id="clippath">
      <rect class="cls-9" width="200" height="60.58"/>
    </clipPath>
    <clipPath id="clippath-1">
      <rect class="cls-9" width="200" height="60.58"/>
    </clipPath>
    <clipPath id="clippath-2">
      <rect class="cls-9" width="200" height="60.58"/>
    </clipPath>
    <clipPath id="clippath-3">
      <rect class="cls-9" width="200" height="60.58"/>
    </clipPath>
    <clipPath id="clippath-4">
      <rect class="cls-9" width="200" height="60.58"/>
    </clipPath>
    <clipPath id="clippath-5">
      <rect class="cls-9" width="200" height="60.58"/>
    </clipPath>
    <clipPath id="clippath-6">
      <rect class="cls-9" width="200" height="60.58"/>
    </clipPath>
    <clipPath id="clippath-7">
      <rect class="cls-9" width="200" height="60.58"/>
    </clipPath>
    <clipPath id="clippath-8">
      <rect class="cls-9" width="200" height="60.58"/>
    </clipPath>
    <clipPath id="clippath-9">
      <rect class="cls-9" width="200" height="60.58"/>
    </clipPath>
    <clipPath id="clippath-10">
      <rect class="cls-9" width="200" height="60.58"/>
    </clipPath>
    <clipPath id="clippath-11">
      <rect class="cls-9" width="200" height="60.58"/>
    </clipPath>
    <clipPath id="clippath-12">
      <rect class="cls-9" width="200" height="60.58"/>
    </clipPath>
    <clipPath id="clippath-13">
      <rect class="cls-9" width="200" height="60.58"/>
    </clipPath>
    <clipPath id="clippath-14">
      <rect class="cls-9" width="200" height="60.58"/>
    </clipPath>
    <clipPath id="clippath-15">
      <rect class="cls-9" width="200" height="60.58"/>
    </clipPath>
    <clipPath id="clippath-16">
      <rect class="cls-9" width="200" height="60.58"/>
    </clipPath>
    <clipPath id="clippath-17">
      <rect class="cls-9" width="200" height="60.58"/>
    </clipPath>
    <clipPath id="clippath-18">
      <rect class="cls-9" width="200" height="60.58"/>
    </clipPath>
    <clipPath id="clippath-19">
      <rect class="cls-9" width="200" height="60.58"/>
    </clipPath>
    <clipPath id="clippath-20">
      <rect class="cls-9" width="200" height="60.58"/>
    </clipPath>
    <clipPath id="clippath-21">
      <rect class="cls-9" width="200" height="60.58"/>
    </clipPath>
  </defs>
  <g class="cls-16">
    <polygon class="cls-8" points="86.47 2.85 86.47 15.5 83.61 15.5 83.61 .27 88.47 .27 93.18 12.74 97.94 .27 102.64 .27 102.64 15.5 99.54 15.5 99.54 2.79 94.67 15.5 91.3 15.5 86.46 2.86 86.47 2.85"/>
  </g>
  <g class="cls-12">
    <polygon class="cls-8" points="111.02 2.79 111.02 15.5 114.14 15.5 114.14 2.79 120.44 2.79 120.44 .27 104.73 .27 104.73 2.79 111.03 2.79 111.02 2.79"/>
  </g>
  <g class="cls-4">
    <path class="cls-8" d="m121.38,11.06c.1.84.34,1.56.69,2.17.36.59.85,1.08,1.49,1.46.65.36,1.46.64,2.41.81.97.18,2.11.27,3.44.27,2.6,0,4.52-.36,5.74-1.11s1.83-1.96,1.83-3.62c0-.84-.18-1.52-.54-2.05-.34-.53-.8-.94-1.38-1.24-.56-.31-1.22-.54-1.96-.68-.73-.15-1.48-.25-2.25-.31-.76-.07-1.51-.14-2.25-.2-.73-.06-1.38-.16-1.96-.29-.57-.15-1.03-.35-1.38-.62-.34-.27-.52-.65-.52-1.15,0-.84.36-1.41,1.09-1.72.73-.32,1.84-.48,3.33-.48.64,0,1.21.04,1.71.11.52.06.97.17,1.34.35.37.16.67.39.9.66.24.28.38.64.45,1.06h3.19c-.16-1.61-.88-2.76-2.14-3.44-1.27-.69-3.08-1.04-5.44-1.04s-4.23.36-5.54,1.08c-1.3.72-1.94,1.88-1.94,3.48,0,.85.17,1.54.51,2.08.36.52.82.92,1.38,1.24.58.31,1.24.54,1.96.68.74.14,1.49.23,2.25.31.76.06,1.5.11,2.23.18.74.06,1.4.16,1.96.31.58.15,1.04.36,1.38.64.36.28.54.68.54,1.22,0,.79-.36,1.37-1.07,1.72-.72.35-1.85.53-3.42.53-.76,0-1.42-.04-1.98-.11-.55-.07-1.02-.2-1.4-.38-.39-.17-.7-.42-.94-.73s-.41-.71-.51-1.2h-3.2Z"/>
  </g>
  <g class="cls-18">
    <path class="cls-8" d="m82.74,33.5c.1.84.34,1.56.69,2.17.36.59.86,1.08,1.49,1.46.65.36,1.46.64,2.41.82.97.17,2.11.27,3.44.27,2.6,0,4.52-.37,5.73-1.1,1.22-.75,1.83-1.96,1.83-3.62,0-.84-.18-1.52-.54-2.05-.34-.53-.81-.95-1.38-1.24-.56-.31-1.22-.54-1.96-.68-.73-.15-1.48-.25-2.25-.31-.76-.07-1.51-.14-2.25-.2-.73-.06-1.38-.16-1.96-.29-.56-.15-1.03-.35-1.38-.62-.34-.27-.51-.65-.51-1.15,0-.84.36-1.41,1.09-1.72.73-.32,1.84-.49,3.33-.49.64,0,1.21.04,1.71.11.52.06.97.18,1.34.35.37.16.67.39.9.66.24.28.38.63.45,1.06h3.19c-.16-1.6-.87-2.76-2.14-3.44-1.26-.69-3.08-1.04-5.44-1.04s-4.22.36-5.53,1.08c-1.3.72-1.94,1.88-1.94,3.48,0,.86.17,1.54.51,2.08.36.52.82.93,1.38,1.24.58.31,1.24.54,1.96.68.74.14,1.49.23,2.25.31.76.06,1.5.11,2.23.18.74.06,1.4.16,1.96.31.58.15,1.04.36,1.38.64.36.28.54.68.54,1.22,0,.79-.36,1.37-1.07,1.72-.72.35-1.85.53-3.42.53-.76,0-1.42-.04-1.98-.11-.55-.07-1.02-.2-1.41-.37-.38-.18-.7-.42-.94-.73s-.41-.7-.51-1.2h-3.2Z"/>
  </g>
  <g class="cls-13">
    <polygon class="cls-8" points="105.42 25.22 105.42 37.94 108.55 37.94 108.55 25.22 114.84 25.22 114.84 22.71 99.14 22.71 99.14 25.22 105.42 25.22"/>
  </g>
  <g class="cls-23">
    <path class="cls-8" d="m123.76,22.7h-4.28l-6.8,15.23h2.94l1.72-3.91h8.23l1.71,3.91h3.26l-6.78-15.23Zm-5.42,9.06l3.1-7.04,3.12,7.04h-6.22Z"/>
  </g>
  <g class="cls-7">
    <path class="cls-8" d="m144.12,31.95c1.05-.29,1.85-.82,2.38-1.57.55-.77.83-1.75.83-2.96,0-1.52-.45-2.68-1.36-3.49-.89-.82-2.2-1.24-3.93-1.24h-9.66v15.23h3.12v-5.72h5.31l3.59,5.72h3.48l-3.76-5.97h0Zm-2.5-2.08h-6.11v-4.85h6.11c.94,0,1.6.2,1.98.59.39.39.58.91.58,1.57v.55c0,.65-.2,1.17-.6,1.57-.4.4-1.04.58-1.96.57h0Z"/>
  </g>
  <g class="cls-10">
    <polygon class="cls-8" points="154.87 25.22 154.87 37.94 157.99 37.94 157.99 25.22 164.28 25.22 164.28 22.71 148.58 22.71 148.58 25.22 154.88 25.22 154.87 25.22"/>
  </g>
  <g class="cls-19">
    <path class="cls-8" d="m166.21,31.62c0,2.22.65,3.86,1.96,4.9,1.31,1.03,3.28,1.54,5.91,1.54s4.52-.52,5.78-1.54c1.28-1.04,1.92-2.68,1.92-4.9v-9.05h-2.95v8.96c0,.79-.1,1.47-.31,2.01-.2.53-.49.96-.89,1.28-.4.31-.9.53-1.49.66-.59.14-1.28.2-2.05.2s-1.46-.07-2.05-.2-1.09-.35-1.49-.66c-.4-.32-.71-.75-.92-1.28-.19-.54-.29-1.22-.29-2.01v-8.96h-3.12v9.05h-.01Z"/>
  </g>
  <g class="cls-15">
    <path class="cls-8" d="m198.73,24.01c-.83-.87-2.15-1.3-3.95-1.3h-9.7v15.23h3.12v-5.34h6.58c1.8,0,3.11-.43,3.95-1.3.85-.87,1.27-2.09,1.27-3.66-.01-1.58-.43-2.77-1.27-3.63h0Zm-1.88,3.97c0,.66-.2,1.2-.58,1.61-.38.4-1.03.59-1.92.59h-6.16v-5.08h6.16c.89,0,1.53.21,1.92.62.39.41.58.95.58,1.61v.65h0Z"/>
  </g>
  <g class="cls-24">
    <polygon class="cls-8" points="83.61 45.08 83.61 60.31 86.73 60.31 86.73 53.76 95.86 53.76 95.86 60.31 98.98 60.31 98.98 45.08 95.86 45.08 95.86 51.24 86.73 51.24 86.73 45.08 83.61 45.08"/>
  </g>
  <g class="cls-2">
    <path class="cls-8" d="m102.26,54.14c0,2.22.66,3.86,1.96,4.9,1.31,1.03,3.28,1.54,5.92,1.54s4.51-.52,5.78-1.54c1.28-1.04,1.92-2.68,1.92-4.9v-9.05h-2.94v8.96c0,.79-.1,1.46-.31,2.01-.19.53-.49.96-.89,1.28-.4.31-.9.53-1.49.66s-1.28.2-2.05.2-1.46-.07-2.05-.2c-.59-.14-1.09-.35-1.49-.66-.4-.32-.71-.75-.92-1.28-.19-.54-.29-1.22-.29-2.01v-8.96h-3.12v9.05h-.03Z"/>
  </g>
  <g class="cls-14">
    <path class="cls-8" d="m135.13,53.63c-.47-.62-1.22-1.05-2.23-1.3.91-.28,1.55-.74,1.92-1.37.39-.64.58-1.35.58-2.16,0-1.25-.4-2.18-1.21-2.78-.79-.62-1.93-.92-3.41-.92h-9.66v15.23h9.86c1.62,0,2.83-.37,3.64-1.11.82-.75,1.23-1.84,1.23-3.27,0-.95-.24-1.72-.72-2.32m-10.93-6.44h5.78c1.5,0,2.25.6,2.25,1.81v.53c0,.65-.18,1.15-.56,1.5-.37.34-.94.51-1.7.51h-5.78v-4.35h.01Zm8.5,9c0,1.35-.84,2.03-2.52,2.03h-5.98v-4.68h5.98c.85,0,1.48.18,1.9.53.42.34.62.82.62,1.43v.69Z"/>
  </g>
  <g class="cls-5">
    <rect class="cls-8" x="49.53" y=".35" width="11.42" height="11.32"/>
  </g>
  <g class="cls-21">
    <rect class="cls-8" x="23.47" y="1.71" width="8.45" height="8.37"/>
  </g>
  <g class="cls-6">
    <rect class="cls-8" y="3.08" width="5.8" height="5.75"/>
  </g>
  <g class="cls-3">
    <rect class="cls-8" x="49.15" y="24.65" width="11.42" height="11.32"/>
  </g>
  <g class="cls-22">
    <rect class="cls-8" x="23.47" y="26.87" width="8.45" height="8.37"/>
  </g>
  <g class="cls-20">
    <rect class="cls-8" y="28.07" width="5.8" height="5.75"/>
  </g>
  <g class="cls-17">
    <rect class="cls-8" x="49.15" y="48.99" width="11.42" height="11.32"/>
  </g>
  <g class="cls-1">
    <rect class="cls-8" x="23.47" y="50.14" width="8.45" height="8.37"/>
  </g>
  <g class="cls-11">
    <rect class="cls-8" y="51.34" width="5.8" height="5.75"/>
  </g>
</svg>