<?xml version="1.0" encoding="UTF-8"?>
<svg id="_Слой_1" data-name="Слой 1" xmlns="http://www.w3.org/2000/svg" width="1217.08" height="938.6" viewBox="0 0 1217.08 938.6">
  <defs>
    <style>
      .cls-1 {
        stroke: #fff;
        stroke-width: 2.18px;
      }

      .cls-1, .cls-2, .cls-3 {
        fill: none;
      }

      .cls-1, .cls-3 {
        stroke-linecap: round;
        stroke-miterlimit: 10;
      }

      .cls-4 {
        fill: #d32527;
      }

      .cls-4, .cls-5, .cls-6, .cls-7, .cls-2, .cls-8, .cls-9, .cls-10, .cls-11, .cls-12, .cls-13, .cls-14, .cls-15 {
        stroke-width: 0px;
      }

      .cls-5 {
        fill: #ea4e41;
      }

      .cls-6 {
        fill: #152a3f;
      }

      .cls-7 {
        fill: #f6a019;
      }

      .cls-3 {
        stroke: #18446f;
        stroke-width: 2.55px;
      }

      .cls-8 {
        fill: #fff;
      }

      .cls-9 {
        fill: #7fb928;
      }

      .cls-10 {
        fill: #ffda52;
      }

      .cls-11 {
        fill: #18446f;
      }

      .cls-12 {
        fill: #c5dbf1;
      }

      .cls-13 {
        fill: #3e5e26;
      }

      .cls-14 {
        fill: #5578bb;
      }

      .cls-15 {
        fill: #ec6621;
      }
    </style>
  </defs>
  <g>
    <path class="cls-8" d="m69.12,571.73l-58.07,33.53c-6.84,3.95-11.05,11.25-11.05,19.15v66.35c0,7.42,8.03,12.06,14.46,8.35l58.07-33.53c6.84-3.95,11.05-11.25,11.05-19.15v-66.35c.01-7.43-8.03-12.06-14.46-8.35Z"/>
    <polygon class="cls-14" points="6.64 619.65 76.95 579.06 76.95 643.9 6.64 684.5 6.64 619.65"/>
    <polygon class="cls-9" points="76.95 626.71 49.46 616.46 6.64 667.31 76.95 626.71"/>
    <path class="cls-10" d="m17.8,630.99c0-4.47,2.72-9.66,6.07-11.59,3.35-1.93,6.07.12,6.07,4.59s-2.72,9.66-6.07,11.59c-3.35,1.93-6.07-.12-6.07-4.59Z"/>
    <polygon class="cls-11" points="6.64 667.31 76.95 626.71 76.95 643.9 6.64 684.5 6.64 667.31"/>
  </g>
  <line class="cls-3" x1="795.29" y1="603.85" x2="953.5" y2="695.19"/>
  <g>
    <g>
      <path class="cls-11" d="m836.56,750.23l380.49-36.62v17.75c.02.24.01.48,0,.72v.1h0c-.19,2.42-2.03,4.94-5.47,6.92l-203.84,117.69c-6.65,3.84-16.72,4.26-22.48.93l-144.79-83.41c-2.63-1.52-3.89-3.55-3.88-5.68h-.02v-18.4h-.01Z"/>
      <path class="cls-8" d="m1068.4,624.19l144.79,83.41c5.76,3.33,5.04,9.14-1.61,12.98l-203.84,117.69c-6.65,3.84-16.72,4.26-22.48.93l-144.79-83.41c-5.76-3.33-5.04-9.14,1.61-12.98l203.84-117.69c6.65-3.84,16.71-4.26,22.48-.93Z"/>
      <path class="cls-14" d="m1068.69,635.03l125.02,72.02c4.98,2.87,4.35,7.89-1.39,11.21l-186.18,107.14c-5.75,3.32-14.44,3.68-19.41.8l-125.02-72.02c-4.98-2.87-4.35-7.89,1.39-11.21l186.18-107.14c5.74-3.31,14.44-3.67,19.41-.8Z"/>
    </g>
    <polygon class="cls-7" points="881.18 747.63 933.66 717.34 949.95 726.74 897.47 757.04 881.18 747.63"/>
    <polygon class="cls-12" points="907.16 763.35 1089.25 658.22 1127.47 679.79 945.38 784.92 907.16 763.35"/>
    <polygon class="cls-15" points="958.07 792.36 1140.16 687.23 1178.38 708.8 996.29 813.93 958.07 792.36"/>
    <polygon class="cls-10" points="946.39 710.13 998.87 679.83 1015.16 689.24 962.68 719.53 946.39 710.13"/>
    <polygon class="cls-9" points="1011.6 672.62 1064.08 642.33 1080.37 651.73 1027.89 682.03 1011.6 672.62"/>
  </g>
  <line class="cls-3" x1="231.67" y1="278.44" x2="382.01" y2="365.24"/>
  <line class="cls-3" x1="343.46" y1="599.98" x2="185.25" y2="691.32"/>
  <line class="cls-3" x1="956.39" y1="245.96" x2="806.05" y2="332.76"/>
  <g>
    <g>
      <path class="cls-9" d="m246.14,235.23l-208.71,17.45v32.9c.02,2.74,2.01,5.63,5.92,7.89l69.6,40.18c7.17,4.14,18.01,4.59,24.22,1l104.77-60.49c2.87-1.65,4.22-3.88,4.17-6.2l.03-32.73Z"/>
      <path class="cls-13" d="m146.39,185.9l-104.77,60.49c-6.21,3.58-5.43,9.84,1.74,13.98l69.6,40.18c7.17,4.14,18.01,4.59,24.22,1l104.77-60.49c6.21-3.58,5.43-9.84-1.74-13.98l-69.6-40.18c-7.17-4.13-18.01-4.58-24.22-1Z"/>
      <path class="cls-10" d="m151.37,309.65c0,3.07-1.86,6.63-4.16,7.95-2.3,1.33-4.16-.08-4.16-3.15s1.86-6.63,4.16-7.95c2.29-1.32,4.16.08,4.16,3.15Z"/>
      <path class="cls-10" d="m163.54,302.59c0,3.07-1.86,6.63-4.16,7.95-2.3,1.33-4.16-.08-4.16-3.15s1.86-6.63,4.16-7.95c2.29-1.32,4.16.09,4.16,3.15Z"/>
      <path class="cls-10" d="m175.7,295.53c0,3.07-1.86,6.63-4.16,7.95-2.3,1.33-4.16-.08-4.16-3.15s1.86-6.63,4.16-7.95c2.3-1.32,4.16.09,4.16,3.15Z"/>
      <path class="cls-10" d="m187.87,288.48c0,3.07-1.86,6.63-4.16,7.95-2.3,1.33-4.16-.08-4.16-3.15s1.86-6.63,4.16-7.95c2.3-1.33,4.16.08,4.16,3.15Z"/>
      <path class="cls-10" d="m237.65,259.93c0,4.87-2.96,10.52-6.61,12.63-3.65,2.11-6.61-.13-6.61-5s2.96-10.52,6.61-12.63c3.65-2.1,6.61.14,6.61,5Z"/>
    </g>
    <g>
      <path class="cls-12" d="m246.14,203.63l-208.71,17.45v32.9c.02,2.74,2.01,5.63,5.92,7.89l69.6,40.18c7.17,4.14,18.01,4.59,24.22,1l104.77-60.49c2.87-1.65,4.22-3.88,4.17-6.2l.03-32.73Z"/>
      <path class="cls-2" d="m146.39,154.29l-104.77,60.49c-6.21,3.58-5.43,9.84,1.74,13.98l69.6,40.18c7.17,4.14,18.01,4.59,24.22,1l104.77-60.49c6.21-3.58,5.43-9.84-1.74-13.98l-69.6-40.18c-7.17-4.13-18.01-4.58-24.22-1Z"/>
      <path class="cls-10" d="m151.37,278.04c0,3.07-1.86,6.63-4.16,7.95-2.3,1.33-4.16-.08-4.16-3.15s1.86-6.63,4.16-7.95c2.29-1.32,4.16.09,4.16,3.15Z"/>
      <path class="cls-10" d="m163.54,270.98c0,3.07-1.86,6.63-4.16,7.95-2.3,1.33-4.16-.08-4.16-3.15s1.86-6.63,4.16-7.95c2.29-1.32,4.16.09,4.16,3.15Z"/>
      <path class="cls-10" d="m175.7,263.93c0,3.07-1.86,6.63-4.16,7.95-2.3,1.33-4.16-.08-4.16-3.15s1.86-6.63,4.16-7.95c2.3-1.33,4.16.08,4.16,3.15Z"/>
      <path class="cls-10" d="m187.87,256.87c0,3.07-1.86,6.63-4.16,7.95-2.3,1.33-4.16-.08-4.16-3.15s1.86-6.63,4.16-7.95c2.3-1.33,4.16.08,4.16,3.15Z"/>
      <path class="cls-10" d="m237.65,228.32c0,4.87-2.96,10.52-6.61,12.63-3.65,2.11-6.61-.13-6.61-5s2.96-10.52,6.61-12.63c3.65-2.1,6.61.14,6.61,5Z"/>
    </g>
    <g>
      <path class="cls-15" d="m246.14,168.23l-208.71,17.45v32.9c.02,2.74,2.01,5.63,5.92,7.89l69.6,40.18c7.17,4.14,18.01,4.59,24.22,1l104.77-60.49c2.87-1.65,4.22-3.88,4.17-6.2l.03-32.73Z"/>
      <path class="cls-7" d="m146.39,118.9l-104.77,60.49c-6.21,3.58-5.43,9.84,1.74,13.98l69.6,40.18c7.17,4.14,18.01,4.59,24.22,1l104.77-60.49c6.21-3.58,5.43-9.84-1.74-13.98l-69.6-40.18c-7.17-4.14-18.01-4.59-24.22-1Z"/>
      <path class="cls-10" d="m151.37,242.64c0,3.07-1.86,6.63-4.16,7.95-2.3,1.33-4.16-.08-4.16-3.15s1.86-6.63,4.16-7.95c2.29-1.32,4.16.09,4.16,3.15Z"/>
      <path class="cls-10" d="m163.54,235.58c0,3.07-1.86,6.63-4.16,7.95-2.3,1.33-4.16-.08-4.16-3.15s1.86-6.63,4.16-7.95c2.29-1.32,4.16.09,4.16,3.15Z"/>
      <path class="cls-10" d="m175.7,228.53c0,3.07-1.86,6.63-4.16,7.95-2.3,1.33-4.16-.08-4.16-3.15s1.86-6.63,4.16-7.95c2.3-1.33,4.16.08,4.16,3.15Z"/>
      <path class="cls-10" d="m187.87,221.47c0,3.07-1.86,6.63-4.16,7.95-2.3,1.33-4.16-.08-4.16-3.15s1.86-6.63,4.16-7.95,4.16.09,4.16,3.15Z"/>
      <path class="cls-10" d="m237.65,192.92c0,4.87-2.96,10.52-6.61,12.63-3.65,2.11-6.61-.13-6.61-5s2.96-10.52,6.61-12.63c3.65-2.1,6.61.14,6.61,5Z"/>
    </g>
  </g>
  <path class="cls-3" d="m644.05,239.16l369.59,213.38c12.07,6.97,10.55,19.13-3.38,27.18l-412.5,237.81c-13.93,8.04-35.01,8.92-47.07,1.95l-369.59-213.38c-12.07-6.97-10.55-19.13,3.38-27.18l412.5-237.81c13.93-8.04,35.01-8.92,47.07-1.95Z"/>
  <g>
    <path class="cls-6" d="m191.57,626.91L8.19,732.79c-3.11,1.8-5.03,5.12-5.03,8.71v138.84c0,3.68,3.98,5.98,7.17,4.14l183.37-105.87c3.11-1.8,5.03-5.12,5.03-8.71v-138.85c0-3.68-3.98-5.98-7.16-4.14Z"/>
    <path class="cls-8" d="m243.91,737.34l-142.93,82.52c-2.43,1.4-3.92,3.99-3.92,6.79v108.22c0,2.87,3.1,4.66,5.59,3.22l142.93-82.52c2.43-1.4,3.92-3.99,3.92-6.79v-108.22c0-2.86-3.11-4.65-5.59-3.22Z"/>
    <g>
      <polygon class="cls-10" points="62.65 770.09 38.92 783.79 38.92 825.31 62.65 811.6 62.65 770.09"/>
      <polygon class="cls-5" points="96.24 767.87 72.51 781.57 72.51 805.91 96.24 792.21 96.24 767.87"/>
      <polygon class="cls-7" points="129.83 708.32 106.1 722.03 106.1 786.52 129.83 772.82 129.83 708.32"/>
      <polygon class="cls-9" points="163.42 666.24 139.69 679.94 139.69 767.13 163.42 753.42 163.42 666.24"/>
      <polyline class="cls-1" points="29.51 743.55 29.51 845.16 172.38 762.67"/>
    </g>
  </g>
  <polygon class="cls-7" points="112.77 834.65 235.91 763.55 235.91 774.33 112.77 845.43 112.77 834.65"/>
  <polygon class="cls-9" points="112.77 855.81 235.91 784.71 235.91 795.49 112.77 866.59 112.77 855.81"/>
  <polygon class="cls-5" points="112.77 876.97 235.91 805.87 235.91 816.64 112.77 887.74 112.77 876.97"/>
  <polygon class="cls-10" points="112.77 898.12 235.91 827.02 235.91 837.8 112.77 908.9 112.77 898.12"/>
  <g>
    <path class="cls-6" d="m961.88,15.82l133.33,76.81c5.31,3.06,4.64,8.42-1.49,11.95l-198.56,114.26c-6.13,3.54-15.4,3.92-20.7.86l-133.33-76.81c-5.31-3.06-4.64-8.42,1.49-11.95l198.56-114.26c6.13-3.54,15.4-3.93,20.7-.86Z"/>
    <g>
      <path class="cls-14" d="m806.45,118.99l-15,8.66c-1.89,1.09-1.66,3,.53,4.27h0c2.19,1.26,5.5,1.4,7.39.31l15-8.66c1.89-1.09,1.66-3-.53-4.27h0c-2.19-1.27-5.49-1.4-7.39-.31Z"/>
      <path class="cls-8" d="m854.16,91.45l-15,8.66c-1.89,1.09-1.66,3,.53,4.27h0c2.19,1.26,5.5,1.4,7.39.31l15-8.66c1.89-1.09,1.66-3-.53-4.27h0c-2.19-1.27-5.5-1.41-7.39-.31Z"/>
      <path class="cls-8" d="m939.68,42.07l-15,8.66c-1.89,1.09-1.66,3,.53,4.27h0c2.19,1.26,5.5,1.4,7.39.31l15-8.66c1.89-1.09,1.66-3-.53-4.27h0c-2.18-1.27-5.49-1.4-7.39-.31Z"/>
      <path class="cls-8" d="m872.08,81.1l-7.5,4.33c-1.89,1.09-1.66,3,.53,4.27h0c2.19,1.26,5.5,1.4,7.39.31l7.5-4.33c1.89-1.09,1.66-3-.53-4.27h0c-2.18-1.27-5.49-1.41-7.39-.31Z"/>
      <path class="cls-8" d="m826.41,146.13l-15,8.66c-1.89,1.09-1.66,3,.53,4.27h0c2.19,1.26,5.5,1.4,7.39.31l15-8.66c1.89-1.09,1.66-3-.53-4.27h0c-2.19-1.27-5.49-1.4-7.39-.31Z"/>
      <path class="cls-8" d="m908.84,98.54l-15,8.66c-1.89,1.09-1.66,3,.53,4.27h0c2.19,1.26,5.5,1.4,7.39.31l15-8.66c1.89-1.09,1.66-3-.53-4.27h0c-2.18-1.27-5.49-1.41-7.39-.31Z"/>
      <path class="cls-8" d="m883.35,113.26l-26.34,15.21c-1.89,1.09-1.66,3,.53,4.27h0c2.19,1.26,5.5,1.4,7.39.31l26.34-15.21c1.89-1.09,1.66-3-.53-4.27h0c-2.18-1.27-5.49-1.41-7.39-.31Z"/>
      <path class="cls-8" d="m844.34,135.78l-7.5,4.33c-1.89,1.09-1.66,3,.53,4.27h0c2.19,1.26,5.5,1.4,7.39.31l7.5-4.33c1.89-1.09,1.66-3-.53-4.27h0c-2.19-1.27-5.5-1.4-7.39-.31Z"/>
      <path class="cls-8" d="m897.57,138.36l-15,8.66c-1.89,1.09-1.66,3,.53,4.27h0c2.19,1.26,5.5,1.4,7.39.31l15-8.66c1.89-1.09,1.66-3-.53-4.27h0c-2.19-1.27-5.5-1.4-7.39-.31Z"/>
      <path class="cls-8" d="m963.67,100.2l-15,8.66c-1.89,1.09-1.66,3,.53,4.27h0c2.19,1.26,5.5,1.4,7.39.31l15-8.66c1.89-1.09,1.66-3-.53-4.27h0c-2.19-1.27-5.5-1.41-7.39-.31Z"/>
      <path class="cls-8" d="m915.5,128.01l-7.5,4.33c-1.89,1.09-1.66,3,.53,4.27h0c2.19,1.26,5.5,1.4,7.39.31l7.5-4.33c1.89-1.09,1.66-3-.53-4.27h0c-2.19-1.27-5.5-1.4-7.39-.31Z"/>
      <path class="cls-10" d="m825.35,108.31l-14.37-.6c-2.89-.12-5.06,1.13-4.85,2.8.21,1.67,2.71,3.11,5.6,3.23l9.25.38.66,5.34c.21,1.67,2.71,3.11,5.6,3.23s5.06-1.13,4.85-2.8l-1.03-8.3c-.11-.85-.81-1.64-1.86-2.23-1.01-.58-2.38-.99-3.85-1.05Z"/>
      <path class="cls-9" d="m935.9,115.62l-14.37-.6c-2.89-.12-5.06,1.13-4.85,2.8.21,1.67,2.71,3.11,5.6,3.23l9.25.38.66,5.34c.21,1.67,2.71,3.11,5.6,3.23s5.06-1.13,4.85-2.8l-1.03-8.3c-.11-.85-.81-1.64-1.86-2.23-1.01-.58-2.38-.99-3.85-1.05Z"/>
      <path class="cls-9" d="m960.44,30.32l-14.37-.6c-2.89-.12-5.06,1.13-4.85,2.8.21,1.67,2.72,3.11,5.6,3.23l9.25.38.66,5.34c.21,1.67,2.71,3.11,5.6,3.23s5.06-1.13,4.85-2.8l-1.03-8.3c-.11-.85-.81-1.64-1.86-2.23-1.01-.58-2.38-.99-3.85-1.05Z"/>
      <path class="cls-9" d="m885.7,73.47l-1.03-8.3c-.21-1.67,1.96-2.92,4.85-2.8,2.89.12,5.39,1.57,5.6,3.23l.66,5.34,9.25.38c2.89.12,5.39,1.57,5.6,3.23.21,1.67-1.96,2.92-4.85,2.8l-14.37-.6c-1.47-.06-2.84-.47-3.86-1.07-1.04-.57-1.74-1.36-1.85-2.21Z"/>
      <path class="cls-10" d="m775.7,136.98l-1.03-8.3c-.21-1.67,1.96-2.92,4.85-2.8s5.39,1.57,5.6,3.23l.66,5.34,9.24.38c2.89.12,5.39,1.57,5.6,3.23.21,1.67-1.96,2.92-4.85,2.8l-14.37-.6c-1.47-.06-2.84-.47-3.86-1.07-1.03-.57-1.74-1.36-1.84-2.21Z"/>
      <path class="cls-8" d="m907.01,55.2l1.64,13.2c.21,1.67,2.72,3.11,5.6,3.23h0c2.89.12,5.06-1.13,4.85-2.8l-1.64-13.2c-.21-1.67-2.71-3.11-5.6-3.23h0c-2.89-.12-5.06,1.14-4.85,2.8Z"/>
      <path class="cls-14" d="m843.98,163.56l1.64,13.2c.21,1.67,2.71,3.11,5.6,3.23h0c2.89.12,5.06-1.13,4.85-2.8l-1.64-13.2c-.21-1.67-2.71-3.11-5.6-3.23h0c-2.88-.12-5.05,1.14-4.85,2.8Z"/>
      <path class="cls-14" d="m862.93,152.63l1.64,13.2c.21,1.67,2.72,3.11,5.6,3.23h0c2.89.12,5.06-1.13,4.85-2.8l-1.64-13.2c-.21-1.67-2.71-3.11-5.6-3.23h0c-2.89-.12-5.06,1.13-4.85,2.8Z"/>
    </g>
  </g>
  <g>
    <path class="cls-5" d="m168.75,570.85c0,23.98-14.58,51.84-32.57,62.22s-32.57-.64-32.57-24.62,14.58-51.84,32.57-62.22c17.99-10.39,32.57.63,32.57,24.62Z"/>
    <path class="cls-8" d="m130.59,569.18l25.17,4.84c2.75.53,2.75,5.82,0,9.53l-25.17,33.9c-2.75,3.71-6.19,3.04-6.19-1.19v-38.74c0-4.23,3.44-8.87,6.19-8.34Z"/>
  </g>
  <g>
    <path class="cls-14" d="m1046.68,146.92l-88.69,51.2c-1.51.87-2.43,2.48-2.43,4.21v80.66c0,1.78,1.93,2.89,3.47,2l88.69-51.2c1.51-.87,2.43-2.48,2.43-4.21v-80.66c0-1.78-1.93-2.89-3.47-2Z"/>
    <g>
      <g>
        <path class="cls-15" d="m1035.65,175.91l-9.5-5.51h0c-1.18-.71-2.74-.66-4.44.32l-1,.58c-3.71,2.14-6.72,7.89-6.72,12.84v39.93c0,2.82.98,4.77,2.51,5.53h0l9.39,5.44c1.19.76,2.78.72,4.52-.28l1-.58c3.71-2.14,6.72-7.89,6.72-12.84v-39.92c-.01-2.8-.97-4.74-2.48-5.51Z"/>
        <path class="cls-8" d="m1031.4,234.18l-1,.58c-3.71,2.14-6.72-.13-6.72-5.08v-39.93c0-4.95,3.01-10.69,6.72-12.84l1-.58c3.71-2.14,6.72.13,6.72,5.08v39.92c0,4.96-3.01,10.71-6.72,12.85Z"/>
      </g>
      <g>
        <path class="cls-11" d="m1039.05,180.88h0l-3.97-2.3h0c-1.16-.69-2.68-.64-4.34.32-3.63,2.09-6.57,7.71-6.57,12.55,0,2.7.92,4.58,2.36,5.36l3.96,2.3h0c1.16.68,2.67.63,4.32-.33,3.63-2.09,6.57-7.71,6.57-12.55,0-2.69-.9-4.57-2.33-5.35Z"/>
        <path class="cls-14" d="m1041.38,186.23c0,4.84-2.94,10.46-6.57,12.55s-6.57-.13-6.57-4.97,2.94-10.46,6.57-12.55c3.63-2.09,6.57.13,6.57,4.97Z"/>
      </g>
      <g>
        <path class="cls-15" d="m1014.82,187.92l-9.5-5.51h0c-1.18-.71-2.74-.66-4.44.32l-1,.58c-3.71,2.14-6.72,7.89-6.72,12.84v39.93c0,2.82.98,4.77,2.51,5.53h0l9.39,5.44c1.19.76,2.78.72,4.52-.28l1-.58c3.71-2.14,6.72-7.89,6.72-12.84v-39.92c-.01-2.79-.97-4.73-2.48-5.51Z"/>
        <path class="cls-8" d="m1010.57,246.2l-1,.58c-3.71,2.14-6.72-.13-6.72-5.08v-39.93c0-4.95,3.01-10.69,6.72-12.84l1-.58c3.71-2.14,6.72.13,6.72,5.08v39.93c0,4.95-3.01,10.7-6.72,12.84Z"/>
      </g>
      <g>
        <path class="cls-7" d="m1018.21,209.61h0l-3.97-2.3h0c-1.16-.69-2.68-.64-4.34.32-3.63,2.09-6.57,7.71-6.57,12.55,0,2.7.92,4.58,2.36,5.36l3.96,2.3h0c1.16.68,2.67.63,4.32-.33,3.63-2.09,6.57-7.71,6.57-12.55.01-2.69-.9-4.57-2.33-5.35Z"/>
        <path class="cls-10" d="m1020.55,214.96c0,4.84-2.94,10.46-6.57,12.55s-6.57-.13-6.57-4.97,2.94-10.46,6.57-12.55c3.63-2.09,6.57.13,6.57,4.97Z"/>
      </g>
      <g>
        <path class="cls-15" d="m993.97,199.94l-9.5-5.51h0c-1.18-.71-2.74-.66-4.44.32l-1,.58c-3.71,2.14-6.72,7.89-6.72,12.84v39.93c0,2.82.98,4.77,2.51,5.53h0l9.39,5.44c1.19.76,2.78.72,4.52-.28l1-.58c3.71-2.14,6.72-7.89,6.72-12.84v-39.93c-.01-2.79-.98-4.73-2.48-5.5Z"/>
        <path class="cls-8" d="m989.72,258.21l-1,.58c-3.71,2.14-6.72-.13-6.72-5.08v-39.93c0-4.95,3.01-10.69,6.72-12.84l1-.58c3.71-2.14,6.72.13,6.72,5.08v39.93c0,4.96-3.01,10.7-6.72,12.84Z"/>
      </g>
      <g>
        <path class="cls-4" d="m997.36,234.22h0l-3.97-2.3h0c-1.16-.69-2.68-.64-4.34.32-3.63,2.09-6.57,7.71-6.57,12.55,0,2.7.92,4.58,2.36,5.36l3.96,2.3h0c1.16.68,2.67.63,4.33-.33,3.63-2.09,6.57-7.71,6.57-12.55,0-2.69-.91-4.57-2.34-5.35Z"/>
        <path class="cls-5" d="m999.7,239.57c0,4.84-2.94,10.46-6.57,12.55s-6.57-.13-6.57-4.97,2.94-10.46,6.57-12.55c3.63-2.1,6.57.13,6.57,4.97Z"/>
      </g>
    </g>
  </g>
  <g>
    <path class="cls-14" d="m141.44,7.38l-10.99-6.49h-.01c-1.83-1.08-4.2-1.27-6.31-.05L36.63,51.36c-4.16,2.4-6.73,6.85-6.73,11.65v60.94c0,2.36,1.26,4.27,3.03,5.33h-.01s.06.04.06.04c.03.02.06.04.09.05l11.17,6.6h.01c1.82,1.03,4.15,1.17,6.23-.03l63.42-36.91,14.15,8.17v-16.41l9.95-5.79c4.14-2.41,6.69-6.84,6.69-11.63V12.84c-.01-2.45-1.37-4.43-3.25-5.46Z"/>
    <path class="cls-8" d="m135.33,7.44L47.83,57.96c-4.16,2.4-6.73,6.85-6.73,11.65v60.94c0,4.81,5.21,7.81,9.37,5.39l63.42-36.91,14.15,8.17v-16.41l9.95-5.79c4.14-2.41,6.69-6.84,6.69-11.63V12.84c0-4.8-5.19-7.8-9.35-5.4Z"/>
    <path class="cls-11" d="m62.07,90.86c0-4.28,2.6-9.25,5.81-11.11,3.21-1.85,5.81.11,5.81,4.4s-2.6,9.25-5.81,11.11c-3.2,1.85-5.81-.12-5.81-4.4Z"/>
    <path class="cls-11" d="m80.03,80.32c0-4.28,2.6-9.25,5.81-11.11,3.21-1.85,5.81.11,5.81,4.4s-2.6,9.25-5.81,11.11c-3.21,1.85-5.81-.12-5.81-4.4Z"/>
    <path class="cls-11" d="m97.98,69.79c0-4.28,2.6-9.25,5.81-11.11,3.21-1.85,5.81.11,5.81,4.4s-2.6,9.25-5.81,11.11c-3.21,1.85-5.81-.12-5.81-4.4Z"/>
    <path class="cls-11" d="m115.93,59.25c0-4.28,2.6-9.25,5.81-11.11,3.21-1.85,5.81.11,5.81,4.4s-2.6,9.25-5.81,11.11c-3.2,1.85-5.81-.11-5.81-4.4Z"/>
  </g>
  <g>
    <polygon class="cls-10" points="849.76 692.07 849.76 728.03 881.62 709.63 881.62 673.67 849.76 692.07"/>
    <polygon class="cls-15" points="893.08 680.04 893.08 702.89 924.95 684.5 924.95 661.64 893.08 680.04"/>
    <polygon class="cls-9" points="936.41 604.99 936.41 677.76 968.27 659.36 968.27 586.59 936.41 604.99"/>
    <polygon class="cls-11" points="979.74 534.26 979.74 652.62 1011.6 634.22 1011.6 515.86 979.74 534.26"/>
  </g>
</svg>