<?xml version="1.0" encoding="UTF-8"?>
<svg id="_Слой_1" data-name=" Слой 1" xmlns="http://www.w3.org/2000/svg" width="1524.96" height="1050.76" xmlns:xlink="http://www.w3.org/1999/xlink" viewBox="0 0 1524.96 1050.76">
  <defs>
    <style>
      .cls-1 {
        fill: url(#_Áåçûìÿííûé_ãðàäèåíò_1508-14);
      }

      .cls-1, .cls-2, .cls-3, .cls-4, .cls-5, .cls-6, .cls-7, .cls-8, .cls-9, .cls-10, .cls-11, .cls-12, .cls-13, .cls-14, .cls-15, .cls-16, .cls-17, .cls-18, .cls-19, .cls-20, .cls-21, .cls-22, .cls-23, .cls-24, .cls-25, .cls-26, .cls-27, .cls-28, .cls-29, .cls-30, .cls-31, .cls-32, .cls-33, .cls-34, .cls-35, .cls-36, .cls-37, .cls-38, .cls-39, .cls-40, .cls-41, .cls-42, .cls-43, .cls-44, .cls-45, .cls-46, .cls-47, .cls-48, .cls-49, .cls-50, .cls-51 {
        stroke-width: 0px;
      }

      .cls-1, .cls-16, .cls-17, .cls-24, .cls-32, .cls-39, .cls-44, .cls-46, .cls-47, .cls-49, .cls-50, .cls-51 {
        opacity: .5;
      }

      .cls-2 {
        fill: url(#_Áåçûìÿííûé_ãðàäèåíò_1508-19);
      }

      .cls-3 {
        fill: url(#_Áåçûìÿííûé_ãðàäèåíò_1508-5);
      }

      .cls-4 {
        fill: #78a6ff;
      }

      .cls-5 {
        fill: url(#_Áåçûìÿííûé_ãðàäèåíò_14);
      }

      .cls-6 {
        fill: url(#_Áåçûìÿííûé_ãðàäèåíò_19-3);
      }

      .cls-6, .cls-10, .cls-29 {
        mix-blend-mode: multiply;
      }

      .cls-7 {
        fill: url(#_Áåçûìÿííûé_ãðàäèåíò_1509-3);
      }

      .cls-8 {
        fill: url(#_Áåçûìÿííûé_ãðàäèåíò_1509-2);
      }

      .cls-9 {
        fill: url(#_Áåçûìÿííûé_ãðàäèåíò_1580-3);
      }

      .cls-10 {
        fill: url(#_Áåçûìÿííûé_ãðàäèåíò_19-2);
      }

      .cls-52 {
        filter: url(#luminosity-noclip-5);
      }

      .cls-11 {
        fill: url(#_Áåçûìÿííûé_ãðàäèåíò_1508);
      }

      .cls-12 {
        fill: url(#_Áåçûìÿííûé_ãðàäèåíò_1508-15);
      }

      .cls-13 {
        fill: url(#_Áåçûìÿííûé_ãðàäèåíò_1508-8);
      }

      .cls-53 {
        mask: url(#mask-2);
      }

      .cls-54 {
        isolation: isolate;
      }

      .cls-14 {
        fill: url(#_Áåçûìÿííûé_ãðàäèåíò_1508-11);
      }

      .cls-15 {
        fill: #1346c3;
      }

      .cls-16 {
        fill: url(#_Áåçûìÿííûé_ãðàäèåíò_1508-9);
      }

      .cls-55 {
        mask: url(#mask-3);
      }

      .cls-17 {
        fill: url(#_Áåçûìÿííûé_ãðàäèåíò_1508-6);
      }

      .cls-18 {
        fill: url(#_Áåçûìÿííûé_ãðàäèåíò_1508-27);
      }

      .cls-19 {
        fill: url(#_Áåçûìÿííûé_ãðàäèåíò_1580);
      }

      .cls-20 {
        fill: none;
      }

      .cls-21 {
        fill: url(#linear-gradient-3);
      }

      .cls-21, .cls-23, .cls-41 {
        opacity: .9;
      }

      .cls-22 {
        fill: url(#_Áåçûìÿííûé_ãðàäèåíò_1508-3);
      }

      .cls-56 {
        mask: url(#mask-5);
      }

      .cls-23 {
        fill: url(#linear-gradient);
      }

      .cls-24 {
        fill: url(#_Áåçûìÿííûé_ãðàäèåíò_1508-10);
      }

      .cls-25 {
        fill: url(#_Áåçûìÿííûé_ãðàäèåíò_1508-16);
      }

      .cls-26 {
        fill: #087df2;
      }

      .cls-27 {
        fill: #4685ff;
      }

      .cls-28 {
        fill: url(#_Áåçûìÿííûé_ãðàäèåíò_1508-13);
      }

      .cls-29 {
        fill: url(#_Áåçûìÿííûé_ãðàäèåíò_19);
      }

      .cls-57 {
        mask: url(#mask-4);
      }

      .cls-30 {
        fill: url(#_Áåçûìÿííûé_ãðàäèåíò_1508-12);
      }

      .cls-31 {
        fill: url(#_Áåçûìÿííûé_ãðàäèåíò_1508-26);
      }

      .cls-58 {
        clip-path: url(#clippath);
      }

      .cls-32 {
        fill: url(#_Áåçûìÿííûé_ãðàäèåíò_1508-23);
      }

      .cls-33 {
        fill: url(#_Áåçûìÿííûé_ãðàäèåíò_1508-17);
      }

      .cls-34 {
        fill: url(#_Áåçûìÿííûé_ãðàäèåíò_1508-2);
      }

      .cls-35 {
        fill: #07000e;
      }

      .cls-36 {
        fill: url(#_Áåçûìÿííûé_ãðàäèåíò_1508-25);
      }

      .cls-37 {
        fill: #ccc7bf;
        opacity: .7;
      }

      .cls-38 {
        fill: url(#_Áåçûìÿííûé_ãðàäèåíò_14-2);
      }

      .cls-39 {
        fill: url(#_Áåçûìÿííûé_ãðàäèåíò_1508-24);
      }

      .cls-59 {
        filter: url(#luminosity-noclip);
      }

      .cls-40 {
        fill: url(#_Áåçûìÿííûé_ãðàäèåíò_1508-22);
      }

      .cls-60 {
        mask: url(#mask-1);
      }

      .cls-61 {
        mask: url(#mask);
      }

      .cls-41 {
        fill: url(#linear-gradient-2);
      }

      .cls-42 {
        fill: url(#_Áåçûìÿííûé_ãðàäèåíò_14-3);
      }

      .cls-43 {
        fill: #7bd7ff;
      }

      .cls-44 {
        fill: url(#_Áåçûìÿííûé_ãðàäèåíò_1508-18);
      }

      .cls-45 {
        fill: url(#_Áåçûìÿííûé_ãðàäèåíò_1580-2);
      }

      .cls-46 {
        fill: url(#_Áåçûìÿííûé_ãðàäèåíò_1508-21);
      }

      .cls-47 {
        fill: url(#_Áåçûìÿííûé_ãðàäèåíò_1508-28);
      }

      .cls-48 {
        fill: url(#_Áåçûìÿííûé_ãðàäèåíò_1509);
      }

      .cls-49 {
        fill: url(#_Áåçûìÿííûé_ãðàäèåíò_1508-4);
      }

      .cls-50 {
        fill: url(#_Áåçûìÿííûé_ãðàäèåíò_1508-7);
      }

      .cls-62 {
        filter: url(#luminosity-noclip-3);
      }

      .cls-51 {
        fill: url(#_Áåçûìÿííûé_ãðàäèåíò_1508-20);
      }
    </style>
    <clipPath id="clippath">
      <path class="cls-20" d="m0,1050.76c530.44-51.78,965.51-623.5,1524.96-647.43V0H0v1050.76Z"/>
    </clipPath>
    <linearGradient id="_Áåçûìÿííûé_ãðàäèåíò_14" data-name="Áåçûìÿííûé ãðàäèåíò 14" x1="91.93" y1="381.31" x2="330.17" y2="381.31" gradientUnits="userSpaceOnUse">
      <stop offset=".4" stop-color="#beb9b0"/>
      <stop offset=".66" stop-color="#e9e4db"/>
    </linearGradient>
    <linearGradient id="_Áåçûìÿííûé_ãðàäèåíò_1509" data-name="Áåçûìÿííûé ãðàäèåíò 1509" x1="92.09" y1="317.65" x2="330.17" y2="317.65" gradientUnits="userSpaceOnUse">
      <stop offset="0" stop-color="#f6f2ed"/>
      <stop offset="1" stop-color="#fdfaf5"/>
    </linearGradient>
    <filter id="luminosity-noclip" x="111.68" y="71.08" width="198.56" height="304.01" color-interpolation-filters="sRGB" filterUnits="userSpaceOnUse">
      <feFlood flood-color="#fff" result="bg"/>
      <feBlend in="SourceGraphic" in2="bg"/>
    </filter>
    <filter id="luminosity-noclip-2" x="111.68" y="-8715.93" width="198.56" height="32766" color-interpolation-filters="sRGB" filterUnits="userSpaceOnUse">
      <feFlood flood-color="#fff" result="bg"/>
      <feBlend in="SourceGraphic" in2="bg"/>
    </filter>
    <mask id="mask-1" x="111.68" y="-8715.93" width="198.56" height="32766" maskUnits="userSpaceOnUse"/>
    <linearGradient id="_Áåçûìÿííûé_ãðàäèåíò_19" data-name="Áåçûìÿííûé ãðàäèåíò 19" x1="210.96" y1="71.08" x2="210.96" y2="375.09" gradientUnits="userSpaceOnUse">
      <stop offset="0" stop-color="#000"/>
      <stop offset=".23" stop-color="#444"/>
      <stop offset=".51" stop-color="#939393"/>
      <stop offset=".74" stop-color="#cdcdcd"/>
      <stop offset=".91" stop-color="#f1f1f1"/>
      <stop offset="1" stop-color="#fff"/>
    </linearGradient>
    <mask id="mask" x="111.68" y="71.08" width="198.56" height="304.01" maskUnits="userSpaceOnUse">
      <g class="cls-59">
        <g class="cls-60">
          <path class="cls-29" d="m111.68,71.08l.04,246.46c0,2.54,1.67,5.09,5.03,7.03l82.52,47.64c6.66,3.85,17.43,3.85,24.04,0l81.98-47.64c3.29-1.91,4.94-4.42,4.95-6.93l-.04-246.46-198.52-.1Z"/>
        </g>
      </g>
    </mask>
    <linearGradient id="linear-gradient" x1="210.96" y1="71.08" x2="210.96" y2="375.09" gradientUnits="userSpaceOnUse">
      <stop offset="0" stop-color="#e9e4db"/>
      <stop offset=".29" stop-color="#b0d1e7"/>
      <stop offset=".62" stop-color="#77bef4"/>
      <stop offset=".87" stop-color="#53b3fc"/>
      <stop offset="1" stop-color="#46afff"/>
    </linearGradient>
    <linearGradient id="_Áåçûìÿííûé_ãðàäèåíò_1580" data-name="Áåçûìÿííûé ãðàäèåíò 1580" x1="211.13" y1="261.33" x2="211.13" y2="373.97" gradientUnits="userSpaceOnUse">
      <stop offset="0" stop-color="#0061ed"/>
      <stop offset=".17" stop-color="#026aee"/>
      <stop offset=".44" stop-color="#0982f3"/>
      <stop offset=".79" stop-color="#14aafa"/>
      <stop offset="1" stop-color="#1cc6ff"/>
    </linearGradient>
    <linearGradient id="_Áåçûìÿííûé_ãðàäèåíò_14-2" data-name="Áåçûìÿííûé ãðàäèåíò 14" x1="544.76" y1="539.28" x2="783" y2="539.28" xlink:href="#_Áåçûìÿííûé_ãðàäèåíò_14"/>
    <linearGradient id="_Áåçûìÿííûé_ãðàäèåíò_1509-2" data-name="Áåçûìÿííûé ãðàäèåíò 1509" x1="544.93" y1="475.62" x2="783" y2="475.62" xlink:href="#_Áåçûìÿííûé_ãðàäèåíò_1509"/>
    <filter id="luminosity-noclip-3" x="564.51" y="229.05" width="198.56" height="304.01" color-interpolation-filters="sRGB" filterUnits="userSpaceOnUse">
      <feFlood flood-color="#fff" result="bg"/>
      <feBlend in="SourceGraphic" in2="bg"/>
    </filter>
    <filter id="luminosity-noclip-4" x="564.51" y="-8715.93" width="198.56" height="32766" color-interpolation-filters="sRGB" filterUnits="userSpaceOnUse">
      <feFlood flood-color="#fff" result="bg"/>
      <feBlend in="SourceGraphic" in2="bg"/>
    </filter>
    <mask id="mask-3" x="564.51" y="-8715.93" width="198.56" height="32766" maskUnits="userSpaceOnUse"/>
    <linearGradient id="_Áåçûìÿííûé_ãðàäèåíò_19-2" data-name="Áåçûìÿííûé ãðàäèåíò 19" x1="663.79" y1="229.05" x2="663.79" y2="533.06" xlink:href="#_Áåçûìÿííûé_ãðàäèåíò_19"/>
    <mask id="mask-2" x="564.51" y="229.05" width="198.56" height="304.01" maskUnits="userSpaceOnUse">
      <g class="cls-62">
        <g class="cls-55">
          <path class="cls-10" d="m564.51,229.05l.04,246.46c0,2.54,1.67,5.09,5.03,7.03l82.52,47.64c6.66,3.85,17.43,3.85,24.04,0l81.98-47.64c3.29-1.91,4.94-4.42,4.95-6.93l-.04-246.46-198.52-.1Z"/>
        </g>
      </g>
    </mask>
    <linearGradient id="linear-gradient-2" x1="663.79" y1="229.05" x2="663.79" y2="533.06" xlink:href="#linear-gradient"/>
    <linearGradient id="_Áåçûìÿííûé_ãðàäèåíò_1580-2" data-name="Áåçûìÿííûé ãðàäèåíò 1580" x1="663.97" y1="419.3" x2="663.97" y2="531.94" xlink:href="#_Áåçûìÿííûé_ãðàäèåíò_1580"/>
    <linearGradient id="_Áåçûìÿííûé_ãðàäèåíò_14-3" data-name="Áåçûìÿííûé ãðàäèåíò 14" x1="228.82" y1="810.88" x2="467.07" y2="810.88" xlink:href="#_Áåçûìÿííûé_ãðàäèåíò_14"/>
    <linearGradient id="_Áåçûìÿííûé_ãðàäèåíò_1509-3" data-name="Áåçûìÿííûé ãðàäèåíò 1509" x1="228.99" y1="747.22" x2="467.07" y2="747.22" xlink:href="#_Áåçûìÿííûé_ãðàäèåíò_1509"/>
    <filter id="luminosity-noclip-5" x="248.57" y="500.65" width="198.56" height="304.01" color-interpolation-filters="sRGB" filterUnits="userSpaceOnUse">
      <feFlood flood-color="#fff" result="bg"/>
      <feBlend in="SourceGraphic" in2="bg"/>
    </filter>
    <filter id="luminosity-noclip-6" x="248.57" y="-8715.93" width="198.56" height="32766" color-interpolation-filters="sRGB" filterUnits="userSpaceOnUse">
      <feFlood flood-color="#fff" result="bg"/>
      <feBlend in="SourceGraphic" in2="bg"/>
    </filter>
    <mask id="mask-5" x="248.57" y="-8715.93" width="198.56" height="32766" maskUnits="userSpaceOnUse"/>
    <linearGradient id="_Áåçûìÿííûé_ãðàäèåíò_19-3" data-name="Áåçûìÿííûé ãðàäèåíò 19" x1="347.86" y1="500.65" x2="347.86" y2="804.66" xlink:href="#_Áåçûìÿííûé_ãðàäèåíò_19"/>
    <mask id="mask-4" x="248.57" y="500.65" width="198.56" height="304.01" maskUnits="userSpaceOnUse">
      <g class="cls-52">
        <g class="cls-56">
          <path class="cls-6" d="m248.57,500.65l.04,246.46c0,2.54,1.67,5.09,5.03,7.03l82.52,47.64c6.66,3.85,17.43,3.85,24.04,0l81.98-47.64c3.29-1.91,4.94-4.42,4.95-6.93l-.04-246.46-198.52-.1Z"/>
        </g>
      </g>
    </mask>
    <linearGradient id="linear-gradient-3" x1="347.86" y1="500.65" x2="347.86" y2="804.66" xlink:href="#linear-gradient"/>
    <linearGradient id="_Áåçûìÿííûé_ãðàäèåíò_1580-3" data-name="Áåçûìÿííûé ãðàäèåíò 1580" x1="348.03" y1="690.9" x2="348.03" y2="803.54" xlink:href="#_Áåçûìÿííûé_ãðàäèåíò_1580"/>
    <radialGradient id="_Áåçûìÿííûé_ãðàäèåíò_1508" data-name="Áåçûìÿííûé ãðàäèåíò 1508" cx="1166.07" cy="546.04" fx="1166.07" fy="546.04" r="3.01" gradientTransform="translate(1863.59) rotate(-180) scale(1 -1)" gradientUnits="userSpaceOnUse">
      <stop offset="0" stop-color="#1c76ff"/>
      <stop offset="1" stop-color="#07000e"/>
    </radialGradient>
    <radialGradient id="_Áåçûìÿííûé_ãðàäèåíò_1508-2" data-name="Áåçûìÿííûé ãðàäèåíò 1508" cx="1156.28" cy="540.39" fx="1156.28" fy="540.39" r="3.01" xlink:href="#_Áåçûìÿííûé_ãðàäèåíò_1508"/>
    <radialGradient id="_Áåçûìÿííûé_ãðàäèåíò_1508-3" data-name="Áåçûìÿííûé ãðàäèåíò 1508" cx="1146.5" cy="534.74" fx="1146.5" fy="534.74" r="3.01" xlink:href="#_Áåçûìÿííûé_ãðàäèåíò_1508"/>
    <radialGradient id="_Áåçûìÿííûé_ãðàäèåíò_1508-4" data-name="Áåçûìÿííûé ãðàäèåíò 1508" cx="1136.72" cy="529.09" fx="1136.72" fy="529.09" r="3.01" xlink:href="#_Áåçûìÿííûé_ãðàäèåíò_1508"/>
    <radialGradient id="_Áåçûìÿííûé_ãðàäèåíò_1508-5" data-name="Áåçûìÿííûé ãðàäèåíò 1508" cx="1126.94" cy="523.45" fx="1126.94" fy="523.45" r="3.01" xlink:href="#_Áåçûìÿííûé_ãðàäèåíò_1508"/>
    <radialGradient id="_Áåçûìÿííûé_ãðàäèåíò_1508-6" data-name="Áåçûìÿííûé ãðàäèåíò 1508" cx="1117.16" cy="517.8" fx="1117.16" fy="517.8" r="3.01" xlink:href="#_Áåçûìÿííûé_ãðàäèåíò_1508"/>
    <radialGradient id="_Áåçûìÿííûé_ãðàäèåíò_1508-7" data-name="Áåçûìÿííûé ãðàäèåíò 1508" cx="1107.37" cy="512.15" fx="1107.37" fy="512.15" r="3.01" xlink:href="#_Áåçûìÿííûé_ãðàäèåíò_1508"/>
    <radialGradient id="_Áåçûìÿííûé_ãðàäèåíò_1508-8" data-name="Áåçûìÿííûé ãðàäèåíò 1508" cy="568.55" fy="568.55" r="3.01" xlink:href="#_Áåçûìÿííûé_ãðàäèåíò_1508"/>
    <radialGradient id="_Áåçûìÿííûé_ãðàäèåíò_1508-9" data-name="Áåçûìÿííûé ãðàäèåíò 1508" cx="1156.28" cy="562.91" fx="1156.28" fy="562.91" r="3.01" xlink:href="#_Áåçûìÿííûé_ãðàäèåíò_1508"/>
    <radialGradient id="_Áåçûìÿííûé_ãðàäèåíò_1508-10" data-name="Áåçûìÿííûé ãðàäèåíò 1508" cx="1146.5" cy="557.26" fx="1146.5" fy="557.26" r="3.01" xlink:href="#_Áåçûìÿííûé_ãðàäèåíò_1508"/>
    <radialGradient id="_Áåçûìÿííûé_ãðàäèåíò_1508-11" data-name="Áåçûìÿííûé ãðàäèåíò 1508" cx="1136.72" cy="551.61" fx="1136.72" fy="551.61" r="3.01" xlink:href="#_Áåçûìÿííûé_ãðàäèåíò_1508"/>
    <radialGradient id="_Áåçûìÿííûé_ãðàäèåíò_1508-12" data-name="Áåçûìÿííûé ãðàäèåíò 1508" cx="1126.94" cy="545.96" fx="1126.94" fy="545.96" r="3.01" xlink:href="#_Áåçûìÿííûé_ãðàäèåíò_1508"/>
    <radialGradient id="_Áåçûìÿííûé_ãðàäèåíò_1508-13" data-name="Áåçûìÿííûé ãðàäèåíò 1508" cx="1117.16" cy="540.32" fx="1117.16" fy="540.32" r="3.01" xlink:href="#_Áåçûìÿííûé_ãðàäèåíò_1508"/>
    <radialGradient id="_Áåçûìÿííûé_ãðàäèåíò_1508-14" data-name="Áåçûìÿííûé ãðàäèåíò 1508" cx="1107.37" cy="534.67" fx="1107.37" fy="534.67" r="3.01" xlink:href="#_Áåçûìÿííûé_ãðàäèåíò_1508"/>
    <radialGradient id="_Áåçûìÿííûé_ãðàäèåíò_1508-15" data-name="Áåçûìÿííûé ãðàäèåíò 1508" cx="1481.3" cy="817.28" fx="1481.3" fy="817.28" r="3.01" xlink:href="#_Áåçûìÿííûé_ãðàäèåíò_1508"/>
    <radialGradient id="_Áåçûìÿííûé_ãðàäèåíò_1508-16" data-name="Áåçûìÿííûé ãðàäèåíò 1508" cx="1471.52" cy="811.64" fx="1471.52" fy="811.64" r="3.01" xlink:href="#_Áåçûìÿííûé_ãðàäèåíò_1508"/>
    <radialGradient id="_Áåçûìÿííûé_ãðàäèåíò_1508-17" data-name="Áåçûìÿííûé ãðàäèåíò 1508" cx="1461.74" cy="805.99" fx="1461.74" fy="805.99" r="3.01" xlink:href="#_Áåçûìÿííûé_ãðàäèåíò_1508"/>
    <radialGradient id="_Áåçûìÿííûé_ãðàäèåíò_1508-18" data-name="Áåçûìÿííûé ãðàäèåíò 1508" cx="1451.95" cy="800.34" fx="1451.95" fy="800.34" r="3.01" xlink:href="#_Áåçûìÿííûé_ãðàäèåíò_1508"/>
    <radialGradient id="_Áåçûìÿííûé_ãðàäèåíò_1508-19" data-name="Áåçûìÿííûé ãðàäèåíò 1508" cx="1442.17" cy="794.69" fx="1442.17" fy="794.69" r="3.01" xlink:href="#_Áåçûìÿííûé_ãðàäèåíò_1508"/>
    <radialGradient id="_Áåçûìÿííûé_ãðàäèåíò_1508-20" data-name="Áåçûìÿííûé ãðàäèåíò 1508" cx="1432.39" cy="789.05" fx="1432.39" fy="789.05" r="3.01" xlink:href="#_Áåçûìÿííûé_ãðàäèåíò_1508"/>
    <radialGradient id="_Áåçûìÿííûé_ãðàäèåíò_1508-21" data-name="Áåçûìÿííûé ãðàäèåíò 1508" cx="1422.61" cy="783.4" fx="1422.61" fy="783.4" r="3.01" xlink:href="#_Áåçûìÿííûé_ãðàäèåíò_1508"/>
    <radialGradient id="_Áåçûìÿííûé_ãðàäèåíò_1508-22" data-name="Áåçûìÿííûé ãðàäèåíò 1508" cx="1481.3" cy="839.8" fx="1481.3" fy="839.8" r="3.01" xlink:href="#_Áåçûìÿííûé_ãðàäèåíò_1508"/>
    <radialGradient id="_Áåçûìÿííûé_ãðàäèåíò_1508-23" data-name="Áåçûìÿííûé ãðàäèåíò 1508" cx="1471.52" cy="834.15" fx="1471.52" fy="834.15" r="3.01" xlink:href="#_Áåçûìÿííûé_ãðàäèåíò_1508"/>
    <radialGradient id="_Áåçûìÿííûé_ãðàäèåíò_1508-24" data-name="Áåçûìÿííûé ãðàäèåíò 1508" cx="1461.74" cy="828.51" fx="1461.74" fy="828.51" r="3.01" xlink:href="#_Áåçûìÿííûé_ãðàäèåíò_1508"/>
    <radialGradient id="_Áåçûìÿííûé_ãðàäèåíò_1508-25" data-name="Áåçûìÿííûé ãðàäèåíò 1508" cx="1451.95" cy="822.86" fx="1451.95" fy="822.86" r="3.01" xlink:href="#_Áåçûìÿííûé_ãðàäèåíò_1508"/>
    <radialGradient id="_Áåçûìÿííûé_ãðàäèåíò_1508-26" data-name="Áåçûìÿííûé ãðàäèåíò 1508" cx="1442.17" cy="817.21" fx="1442.17" fy="817.21" r="3.01" xlink:href="#_Áåçûìÿííûé_ãðàäèåíò_1508"/>
    <radialGradient id="_Áåçûìÿííûé_ãðàäèåíò_1508-27" data-name="Áåçûìÿííûé ãðàäèåíò 1508" cx="1432.39" cy="811.56" fx="1432.39" fy="811.56" xlink:href="#_Áåçûìÿííûé_ãðàäèåíò_1508"/>
    <radialGradient id="_Áåçûìÿííûé_ãðàäèåíò_1508-28" data-name="Áåçûìÿííûé ãðàäèåíò 1508" cx="1422.61" cy="805.91" fx="1422.61" fy="805.91" r="3.01" xlink:href="#_Áåçûìÿííûé_ãðàäèåíò_1508"/>
  </defs>
  <g class="cls-58">
    <g>
      <path class="cls-37" d="m777.07,541.65l-98.32,57.14c-4.29,2.49-10.04,3.64-15.67,3.44l-50.81.02c-5.09-.06-10.16-1.21-14.05-3.46l-98.96-57.13c-7.99-4.61-8.05-12.1-.12-16.72l98.32-57.14c7.94-4.61,20.89-4.61,28.88,0l11.45,6.61,11.37-6.61c7.94-4.61,20.89-4.61,28.88,0l98.96,57.13c7.99,4.61,8.01,12.1.07,16.71Zm-316.22,255.04l-98.96-57.13c-7.99-4.61-20.94-4.61-28.88,0l-11.37,6.61-11.45-6.61c-7.99-4.61-20.94-4.61-28.88,0l-98.32,57.14c-7.94,4.61-7.87,12.1.12,16.71l98.96,57.13c3.89,2.25,8.96,3.4,14.05,3.46l50.81-.02c5.64.2,11.38-.94,15.67-3.44l98.32-57.14c7.94-4.61,7.92-12.1-.07-16.71Zm-138.17-429.95l-98.96-57.13c-7.99-4.61-20.94-4.61-28.88,0l-11.37,6.61-11.45-6.61c-7.99-4.61-20.94-4.61-28.88,0l-98.32,57.14c-7.94,4.61-7.87,12.1.12,16.71l98.96,57.13c3.89,2.25,8.96,3.4,14.05,3.46l50.81-.02c5.64.2,11.38-.94,15.67-3.44l98.32-57.14c7.94-4.61,7.92-12.1-.07-16.71Z"/>
      <path class="cls-26" d="m165.22,321.67c-.65,0-1.3-.16-1.9-.51L-151.23,139.55c-1.83-1.05-2.45-3.39-1.4-5.21,1.06-1.82,3.39-2.45,5.21-1.4l314.55,181.61c1.83,1.05,2.45,3.39,1.4,5.21-.71,1.22-1.99,1.91-3.31,1.91Z"/>
      <g>
        <g>
          <g class="cls-54">
            <path class="cls-5" d="m92.09,317.58l-.17,58.44c0,3.05,2,6.11,6.03,8.43l98.96,57.13c7.99,4.61,20.9,4.61,28.83,0l98.32-57.14c3.95-2.29,5.93-5.3,5.94-8.31l.17-58.44-238.08-.12Z"/>
            <path class="cls-48" d="m324.16,309.29c7.99,4.61,8.01,12.1.07,16.71l-98.32,57.14c-7.94,4.61-20.85,4.61-28.83,0l-98.96-57.13c-7.99-4.61-8.05-12.1-.12-16.71l98.32-57.14c7.94-4.61,20.89-4.61,28.88,0l98.96,57.13Z"/>
          </g>
          <g class="cls-61">
            <path class="cls-23" d="m111.68,71.08l.04,246.46c0,2.54,1.67,5.09,5.03,7.03l82.52,47.64c6.66,3.85,17.43,3.85,24.04,0l81.98-47.64c3.29-1.91,4.94-4.42,4.95-6.93l-.04-246.46-198.52-.1Z"/>
          </g>
          <path class="cls-19" d="m303.45,310.82c6.52,3.77,6.54,9.89.06,13.65l-80.3,46.67c-6.48,3.77-17.03,3.77-23.55,0l-80.83-46.67c-6.52-3.77-6.58-9.89-.1-13.65l80.3-46.67c6.48-3.77,17.06-3.77,23.59,0l80.83,46.67Z"/>
          <g>
            <path class="cls-27" d="m147.91,86.68v-.87c0-.22.09-.43.26-.63l2.51-2.9c.23-.26.42-.44.56-.52l.91-.52c.2-.12.3-.07.3.13v13.33c0,.2-.1.36-.3.48l-.97.56c-.2.12-.3.07-.3-.13v-11.94l-2.58,2.97c-.26.3-.39.31-.39.05Z"/>
            <path class="cls-27" d="m167.77,46.23l-2.17,1.25c-.98.57-1.76.73-2.33.5-.57-.23-.86-.85-.86-1.87v-7.52c0-1,.29-1.95.86-2.85.57-.9,1.35-1.64,2.33-2.2l2.17-1.25c.98-.57,1.76-.73,2.33-.49.57.24.86.86.86,1.86v7.52c0,1.01-.29,1.96-.86,2.86s-1.35,1.62-2.33,2.19Zm-1.97-.25l1.78-1.03c1.21-.7,1.82-1.68,1.82-2.93v-7.39c0-1.26-.61-1.54-1.82-.84l-1.78,1.03c-1.2.69-1.8,1.67-1.8,2.93v7.39c0,1.25.6,1.54,1.8.85Z"/>
            <path class="cls-27" d="m181.43,79.37v-.87c0-.22.09-.43.26-.63l2.51-2.9c.23-.26.42-.44.56-.52l.91-.52c.2-.12.3-.07.3.13v13.33c0,.2-.1.36-.3.48l-.97.56c-.2.12-.3.07-.3-.13v-11.94l-2.58,2.97c-.26.3-.39.31-.39.05Z"/>
            <path class="cls-27" d="m234.37,41.74v-.87c0-.22.09-.43.26-.63l2.51-2.9c.23-.26.42-.44.56-.52l.91-.52c.2-.12.3-.07.3.13v13.33c0,.2-.1.36-.3.48l-.97.56c-.2.12-.3.07-.3-.13v-11.94l-2.58,2.97c-.26.3-.39.31-.39.05Z"/>
            <path class="cls-43" d="m184.79,146.5l-2.17,1.25c-.98.57-1.76.73-2.33.5s-.86-.85-.86-1.87v-7.52c0-1,.29-1.95.86-2.85s1.35-1.64,2.33-2.2l2.17-1.25c.98-.57,1.76-.73,2.33-.49.57.24.86.86.86,1.86v7.52c0,1.01-.29,1.96-.86,2.86s-1.35,1.62-2.33,2.19Zm-1.97-.25l1.78-1.03c1.21-.7,1.82-1.68,1.82-2.93v-7.39c0-1.26-.61-1.54-1.82-.84l-1.78,1.03c-1.2.69-1.8,1.67-1.8,2.92v7.39c0,1.25.6,1.54,1.8.85Z"/>
            <path class="cls-27" d="m139.82,264.62v-.87c0-.22.09-.43.26-.63l2.51-2.9c.23-.26.42-.44.56-.52l.91-.52c.2-.12.3-.07.3.13v13.33c0,.2-.1.36-.3.48l-.97.56c-.2.12-.3.07-.3-.13v-11.94l-2.58,2.97c-.26.3-.39.31-.39.05Z"/>
            <path class="cls-27" d="m245.28,118.22v-.87c0-.22.09-.43.26-.63l2.51-2.9c.23-.26.42-.44.56-.52l.91-.52c.2-.12.3-.07.3.13v13.33c0,.2-.1.36-.3.48l-.97.56c-.2.12-.3.07-.3-.13v-11.94l-2.58,2.97c-.26.3-.39.31-.39.05Z"/>
            <path class="cls-27" d="m293.14,76.62v-.87c0-.22.09-.43.26-.63l2.51-2.9c.23-.26.42-.44.56-.52l.91-.52c.2-.12.3-.07.3.13v13.33c0,.2-.1.36-.3.48l-.97.56c-.2.12-.3.07-.3-.13v-11.94l-2.58,2.97c-.26.3-.39.31-.39.05Z"/>
            <path class="cls-27" d="m228.33,192.3v-.87c0-.22.09-.43.26-.63l2.51-2.9c.23-.26.42-.44.56-.52l.91-.52c.2-.12.3-.07.3.13v13.33c0,.2-.1.36-.3.48l-.97.56c-.2.12-.3.07-.3-.13v-11.94l-2.58,2.97c-.26.3-.39.31-.39.05Z"/>
            <path class="cls-43" d="m128.75,212.39l-2.17,1.25c-.98.57-1.76.73-2.33.5-.57-.23-.86-.85-.86-1.87v-7.52c0-1,.29-1.95.86-2.85.57-.9,1.35-1.64,2.33-2.2l2.17-1.25c.98-.57,1.76-.73,2.33-.49.57.24.86.86.86,1.86v7.52c0,1.01-.29,1.96-.86,2.86s-1.35,1.62-2.33,2.19Zm-1.97-.25l1.78-1.03c1.21-.7,1.82-1.68,1.82-2.93v-7.39c0-1.26-.61-1.54-1.82-.84l-1.78,1.03c-1.2.69-1.8,1.67-1.8,2.93v7.39c0,1.25.6,1.54,1.8.85Z"/>
            <path class="cls-4" d="m162.13,279.86v-.87c0-.22.09-.43.26-.63l2.51-2.9c.23-.26.42-.44.56-.52l.91-.52c.2-.12.3-.07.3.13v13.33c0,.2-.1.36-.3.48l-.97.56c-.2.12-.3.07-.3-.13v-11.94l-2.58,2.97c-.26.3-.39.31-.39.05Z"/>
            <path class="cls-27" d="m217.88,222.76l-2.17,1.25c-.98.57-1.76.73-2.33.5-.57-.23-.86-.85-.86-1.87v-7.52c0-1,.29-1.95.86-2.85.57-.9,1.35-1.64,2.33-2.2l2.17-1.25c.98-.57,1.76-.73,2.33-.49.57.24.86.86.86,1.86v7.52c0,1.01-.29,1.96-.86,2.86-.57.89-1.35,1.62-2.33,2.19Zm-1.97-.25l1.78-1.03c1.21-.7,1.82-1.68,1.82-2.93v-7.39c0-1.26-.61-1.54-1.82-.84l-1.78,1.03c-1.2.69-1.8,1.67-1.8,2.93v7.39c0,1.25.6,1.54,1.8.85Z"/>
            <path class="cls-27" d="m268.75,182.7v-.87c0-.22.09-.43.26-.63l2.51-2.9c.23-.26.42-.44.56-.52l.91-.52c.2-.12.3-.07.3.13v13.33c0,.2-.1.36-.3.48l-.97.56c-.2.12-.3.07-.3-.13v-11.94l-2.58,2.97c-.26.3-.39.31-.39.05Z"/>
            <path class="cls-27" d="m200.6,248.06v-.87c0-.22.09-.43.26-.63l2.51-2.9c.23-.26.42-.44.56-.52l.91-.52c.2-.12.3-.07.3.13v13.33c0,.2-.1.36-.3.48l-.97.56c-.2.12-.3.07-.3-.13v-11.94l-2.58,2.97c-.26.3-.39.31-.39.05Z"/>
            <path class="cls-43" d="m294.15,204.99l-2.17,1.25c-.98.57-1.76.73-2.33.5-.57-.23-.86-.85-.86-1.87v-7.52c0-1,.29-1.95.86-2.85s1.35-1.64,2.33-2.2l2.17-1.25c.98-.57,1.76-.73,2.33-.49.57.24.86.86.86,1.86v7.52c0,1.01-.29,1.96-.86,2.86-.57.89-1.35,1.62-2.33,2.19Zm-1.97-.25l1.78-1.03c1.21-.7,1.82-1.68,1.82-2.93v-7.39c0-1.26-.61-1.54-1.82-.84l-1.78,1.03c-1.2.69-1.8,1.67-1.8,2.93v7.39c0,1.25.6,1.54,1.8.85Z"/>
            <path class="cls-27" d="m295.15,219.48v-.87c0-.22.09-.43.26-.63l2.51-2.9c.23-.26.42-.44.56-.52l.91-.52c.2-.12.3-.07.3.13v13.33c0,.2-.1.36-.3.48l-.97.56c-.2.12-.3.07-.3-.13v-11.94l-2.58,2.97c-.26.3-.39.31-.39.05Z"/>
            <path class="cls-27" d="m200.6,326.1v-.87c0-.21.09-.42.26-.63l2.51-2.9c.23-.26.42-.44.56-.52l.91-.52c.2-.12.3-.07.3.13v13.33c0,.2-.1.36-.3.48l-.97.56c-.2.12-.3.07-.3-.13v-11.94l-2.58,2.96c-.26.3-.39.31-.39.05Z"/>
            <path class="cls-15" d="m217.88,92.96l-2.17,1.25c-.98.57-1.76.73-2.33.5s-.86-.85-.86-1.87v-7.52c0-1,.29-1.95.86-2.85s1.35-1.64,2.33-2.2l2.17-1.25c.98-.57,1.76-.73,2.33-.49.57.24.86.86.86,1.86v7.52c0,1.01-.29,1.96-.86,2.86s-1.35,1.62-2.33,2.19Zm-1.97-.25l1.78-1.03c1.21-.7,1.82-1.68,1.82-2.93v-7.39c0-1.26-.61-1.54-1.82-.84l-1.78,1.03c-1.2.69-1.8,1.67-1.8,2.92v7.39c0,1.25.6,1.54,1.8.85Z"/>
            <path class="cls-15" d="m248.21,90.52v-.87c0-.22.09-.43.26-.63l2.51-2.9c.23-.26.42-.44.56-.52l.91-.52c.2-.12.3-.07.3.13v13.33c0,.2-.1.36-.3.48l-.97.56c-.2.12-.3.07-.3-.13v-11.94l-2.58,2.97c-.26.3-.39.31-.39.05Z"/>
            <path class="cls-15" d="m217.88,170.99l-2.17,1.25c-.98.57-1.76.73-2.33.5-.57-.23-.86-.85-.86-1.87v-7.52c0-1,.29-1.95.86-2.85s1.35-1.64,2.33-2.2l2.17-1.25c.98-.57,1.76-.73,2.33-.49.57.24.86.86.86,1.86v7.52c0,1.01-.29,1.96-.86,2.86s-1.35,1.62-2.33,2.19Zm-1.97-.25l1.78-1.03c1.21-.7,1.82-1.68,1.82-2.93v-7.39c0-1.26-.61-1.54-1.82-.84l-1.78,1.03c-1.2.69-1.8,1.67-1.8,2.93v7.39c0,1.25.6,1.54,1.8.85Z"/>
            <path class="cls-15" d="m275.88,137.51l-2.17,1.25c-.98.57-1.76.73-2.33.5s-.86-.85-.86-1.87v-7.52c0-1,.29-1.95.86-2.85s1.35-1.64,2.33-2.2l2.17-1.25c.98-.57,1.76-.73,2.33-.49.57.24.86.86.86,1.86v7.52c0,1.01-.29,1.96-.86,2.86-.57.89-1.35,1.62-2.33,2.19Zm-1.97-.25l1.78-1.03c1.21-.7,1.82-1.68,1.82-2.93v-7.39c0-1.26-.61-1.54-1.82-.84l-1.78,1.03c-1.2.69-1.8,1.67-1.8,2.92v7.39c0,1.25.6,1.54,1.8.85Z"/>
            <path class="cls-15" d="m244.94,193.66l-2.17,1.25c-.98.57-1.76.73-2.33.5-.57-.23-.86-.85-.86-1.87v-7.52c0-1,.29-1.95.86-2.85.57-.9,1.35-1.64,2.33-2.2l2.17-1.25c.98-.57,1.76-.73,2.33-.49.57.24.86.86.86,1.86v7.52c0,1.01-.29,1.96-.86,2.86-.57.89-1.35,1.62-2.33,2.19Zm-1.97-.25l1.78-1.03c1.21-.7,1.82-1.68,1.82-2.93v-7.39c0-1.26-.61-1.54-1.82-.84l-1.78,1.03c-1.2.69-1.8,1.67-1.8,2.92v7.39c0,1.25.6,1.54,1.8.85Z"/>
            <path class="cls-15" d="m281.39,149.4v-.87c0-.22.09-.43.26-.63l2.51-2.9c.23-.26.42-.44.56-.52l.91-.52c.2-.12.3-.07.3.13v13.33c0,.2-.1.36-.3.48l-.97.56c-.2.12-.3.07-.3-.13v-11.94l-2.58,2.97c-.26.3-.39.31-.39.05Z"/>
            <path class="cls-15" d="m295.15,167.46v-.87c0-.22.09-.43.26-.63l2.51-2.9c.23-.26.42-.44.56-.52l.91-.52c.2-.12.3-.07.3.13v13.33c0,.2-.1.36-.3.48l-.97.56c-.2.12-.3.07-.3-.13v-11.94l-2.58,2.97c-.26.3-.39.31-.39.05Z"/>
            <path class="cls-15" d="m157.81,320.62l-2.17,1.25c-.98.57-1.76.73-2.33.5-.57-.23-.86-.85-.86-1.87v-7.52c0-1,.29-1.95.86-2.85s1.35-1.64,2.33-2.2l2.17-1.25c.98-.57,1.76-.73,2.33-.49.57.24.86.86.86,1.86v7.52c0,1.01-.29,1.96-.86,2.86-.57.89-1.35,1.62-2.33,2.19Zm-1.97-.25l1.78-1.03c1.21-.7,1.82-1.68,1.82-2.93v-7.39c0-1.26-.61-1.54-1.82-.84l-1.78,1.03c-1.2.69-1.8,1.67-1.8,2.92v7.39c0,1.25.6,1.54,1.8.85Z"/>
            <path class="cls-15" d="m215.95,265.21v-.87c0-.22.09-.43.26-.63l2.51-2.9c.23-.26.42-.44.56-.52l.91-.52c.2-.12.3-.07.3.13v13.33c0,.2-.1.36-.3.48l-.97.56c-.2.12-.3.07-.3-.13v-11.94l-2.58,2.97c-.26.3-.39.31-.39.05Z"/>
            <path class="cls-15" d="m242.35,249.97v-.87c0-.22.09-.43.26-.63l2.51-2.9c.23-.26.42-.44.56-.52l.91-.52c.2-.12.3-.07.3.13v13.33c0,.2-.1.36-.3.48l-.97.56c-.2.12-.3.07-.3-.13v-11.94l-2.58,2.97c-.26.3-.39.31-.39.05Z"/>
            <path class="cls-15" d="m123.37,182.02l-2.17,1.25c-.98.57-1.76.73-2.33.5s-.86-.85-.86-1.87v-7.52c0-1,.29-1.95.86-2.85.57-.9,1.35-1.64,2.33-2.2l2.17-1.25c.98-.57,1.76-.73,2.33-.49s.86.86.86,1.86v7.52c0,1.01-.29,1.96-.86,2.86s-1.35,1.62-2.33,2.19Zm-1.97-.25l1.78-1.03c1.21-.7,1.82-1.68,1.82-2.93v-7.39c0-1.26-.61-1.54-1.82-.84l-1.78,1.03c-1.2.69-1.8,1.67-1.8,2.92v7.39c0,1.25.6,1.54,1.8.85Z"/>
            <path class="cls-15" d="m238.73,304.08v-.87c0-.21.09-.42.26-.63l2.51-2.9c.23-.26.42-.44.56-.52l.91-.52c.2-.12.3-.07.3.13v13.33c0,.2-.1.36-.3.48l-.97.56c-.2.12-.3.07-.3-.13v-11.94l-2.58,2.96c-.26.3-.39.31-.39.05Z"/>
            <path class="cls-15" d="m263.58,210.57l-2.17,1.25c-.98.57-1.76.74-2.33.5s-.86-.86-.86-1.87v-7.52c0-1,.29-1.95.86-2.85.57-.9,1.35-1.63,2.33-2.2l2.17-1.25c.98-.57,1.76-.73,2.33-.49s.86.86.86,1.86v7.52c0,1.01-.29,1.96-.86,2.86-.57.89-1.35,1.62-2.33,2.19Zm-1.97-.25l1.78-1.03c1.21-.7,1.82-1.68,1.82-2.94v-7.39c0-1.26-.61-1.54-1.82-.84l-1.78,1.03c-1.2.69-1.8,1.67-1.8,2.92v7.39c0,1.26.6,1.54,1.8.85Z"/>
            <path class="cls-15" d="m200.6,352.11v-.87c0-.21.09-.42.26-.63l2.51-2.9c.23-.26.42-.44.56-.52l.91-.52c.2-.12.3-.07.3.13v13.33c0,.2-.1.36-.3.48l-.97.56c-.2.12-.3.07-.3-.13v-11.94l-2.58,2.96c-.26.3-.39.31-.39.05Z"/>
            <path class="cls-15" d="m265.59,312.44v-.87c0-.21.09-.42.26-.63l2.51-2.9c.23-.26.42-.44.56-.52l.91-.52c.2-.12.3-.07.3.13v13.33c0,.2-.1.36-.3.48l-.97.56c-.2.12-.3.07-.3-.13v-11.94l-2.58,2.96c-.26.3-.39.31-.39.05Z"/>
            <path class="cls-15" d="m292.44,299.08v-.87c0-.21.09-.42.26-.63l2.51-2.9c.23-.26.42-.44.56-.52l.91-.52c.2-.12.3-.07.3.13v13.33c0,.2-.1.36-.3.48l-.97.56c-.2.12-.3.07-.3-.13v-11.94l-2.58,2.96c-.26.3-.39.31-.39.06Z"/>
            <path class="cls-43" d="m140.9,145.02l-2.17,1.25c-.98.57-1.76.73-2.33.5s-.86-.85-.86-1.87v-7.52c0-1,.29-1.95.86-2.85.57-.9,1.35-1.64,2.33-2.2l2.17-1.25c.98-.57,1.76-.73,2.33-.49.57.24.86.86.86,1.86v7.52c0,1.01-.29,1.96-.86,2.86-.57.89-1.35,1.62-2.33,2.19Zm-1.97-.25l1.78-1.03c1.21-.7,1.82-1.68,1.82-2.93v-7.39c0-1.26-.61-1.54-1.82-.84l-1.78,1.03c-1.2.69-1.8,1.67-1.8,2.92v7.39c0,1.25.6,1.54,1.8.85Z"/>
            <path class="cls-15" d="m217.43,67.21l-2.17,1.25c-.98.57-1.76.73-2.33.5s-.86-.85-.86-1.87v-7.52c0-1,.29-1.95.86-2.85.57-.9,1.35-1.64,2.33-2.2l2.17-1.25c.98-.57,1.76-.73,2.33-.49.57.24.86.86.86,1.86v7.52c0,1.01-.29,1.96-.86,2.86s-1.35,1.62-2.33,2.19Zm-1.97-.25l1.78-1.03c1.21-.7,1.82-1.68,1.82-2.93v-7.39c0-1.26-.61-1.54-1.82-.84l-1.78,1.03c-1.2.69-1.8,1.67-1.8,2.92v7.39c0,1.25.6,1.54,1.8.85Z"/>
            <path class="cls-15" d="m265.59,54.47v-.87c0-.22.09-.43.26-.63l2.51-2.9c.23-.26.42-.44.56-.52l.91-.52c.2-.12.3-.07.3.13v13.33c0,.2-.1.36-.3.48l-.97.56c-.2.12-.3.07-.3-.13v-11.94l-2.58,2.97c-.26.3-.39.31-.39.05Z"/>
            <path class="cls-15" d="m226.55,103.02v-.87c0-.22.09-.43.26-.63l2.51-2.9c.23-.26.42-.44.56-.52l.91-.52c.2-.12.3-.07.3.13v13.33c0,.2-.1.36-.3.48l-.97.56c-.2.12-.3.07-.3-.13v-11.94l-2.58,2.97c-.26.3-.39.31-.39.05Z"/>
            <path class="cls-15" d="m179.25,318.78v-.87c0-.22.09-.43.26-.63l2.51-2.9c.23-.26.42-.44.56-.52l.91-.52c.2-.12.3-.07.3.13v13.33c0,.2-.1.36-.3.48l-.97.56c-.2.12-.3.07-.3-.13v-11.94l-2.58,2.97c-.26.3-.39.31-.39.05Z"/>
            <path class="cls-15" d="m244.74,155.49l-2.17,1.25c-.98.57-1.76.73-2.33.5s-.86-.85-.86-1.87v-7.52c0-1,.29-1.95.86-2.85s1.35-1.64,2.33-2.2l2.17-1.25c.98-.57,1.76-.73,2.33-.49.57.24.86.86.86,1.86v7.52c0,1.01-.29,1.96-.86,2.86s-1.35,1.62-2.33,2.19Zm-1.97-.25l1.78-1.03c1.21-.7,1.82-1.68,1.82-2.93v-7.39c0-1.26-.61-1.54-1.82-.84l-1.78,1.03c-1.2.69-1.8,1.67-1.8,2.92v7.39c0,1.25.6,1.54,1.8.85Z"/>
            <path class="cls-15" d="m123.38,122.84l-2.17,1.25c-.98.57-1.76.73-2.33.5-.57-.23-.86-.85-.86-1.87v-7.52c0-1,.29-1.95.86-2.85.57-.9,1.35-1.64,2.33-2.2l2.17-1.25c.98-.57,1.76-.73,2.33-.49.57.24.86.86.86,1.86v7.52c0,1.01-.29,1.96-.86,2.86s-1.35,1.62-2.33,2.19Zm-1.97-.25l1.78-1.03c1.21-.7,1.82-1.68,1.82-2.93v-7.39c0-1.26-.61-1.54-1.82-.84l-1.78,1.03c-1.2.69-1.8,1.67-1.8,2.92v7.39c0,1.25.6,1.54,1.8.85Z"/>
            <path class="cls-15" d="m126.96,237.29v-.87c0-.22.09-.43.26-.63l2.51-2.9c.23-.26.42-.44.56-.52l.91-.52c.2-.12.3-.07.3.13v13.33c0,.2-.1.36-.3.48l-.97.56c-.2.12-.3.07-.3-.13v-11.94l-2.58,2.97c-.26.3-.39.31-.39.05Z"/>
            <path class="cls-15" d="m293.14,118.22v-.87c0-.22.09-.43.26-.63l2.51-2.9c.23-.26.42-.44.56-.52l.91-.52c.2-.12.3-.07.3.13v13.33c0,.2-.1.36-.3.48l-.97.56c-.2.12-.3.07-.3-.13v-11.94l-2.58,2.97c-.26.3-.39.31-.39.05Z"/>
            <path class="cls-15" d="m272.5,165.48l-2.17,1.25c-.98.57-1.76.73-2.33.5s-.86-.85-.86-1.87v-7.52c0-1,.29-1.95.86-2.85.57-.9,1.35-1.64,2.33-2.2l2.17-1.25c.98-.57,1.76-.73,2.33-.49.57.24.86.86.86,1.86v7.52c0,1.01-.29,1.96-.86,2.86-.57.89-1.35,1.62-2.33,2.19Zm-1.97-.25l1.78-1.03c1.21-.7,1.82-1.68,1.82-2.93v-7.39c0-1.26-.61-1.54-1.82-.84l-1.78,1.03c-1.2.69-1.8,1.67-1.8,2.92v7.39c0,1.25.6,1.54,1.8.85Z"/>
            <path class="cls-15" d="m206.6,281.55l-2.17,1.25c-.98.57-1.76.73-2.33.5-.57-.23-.86-.85-.86-1.87v-7.52c0-1,.29-1.95.86-2.85s1.35-1.64,2.33-2.2l2.17-1.25c.98-.57,1.76-.73,2.33-.49.57.24.86.86.86,1.86v7.52c0,1.01-.29,1.96-.86,2.86s-1.35,1.62-2.33,2.19Zm-1.97-.25l1.78-1.03c1.21-.7,1.82-1.68,1.82-2.93v-7.39c0-1.26-.61-1.54-1.82-.84l-1.78,1.03c-1.2.69-1.8,1.67-1.8,2.93v7.39c0,1.25.6,1.54,1.8.85Z"/>
            <path class="cls-15" d="m126.06,297.51l-2.17,1.25c-.98.57-1.76.73-2.33.5-.57-.23-.86-.85-.86-1.87v-7.52c0-1,.29-1.95.86-2.85s1.35-1.64,2.33-2.2l2.17-1.25c.98-.57,1.76-.73,2.33-.49.57.24.86.86.86,1.86v7.52c0,1.01-.29,1.96-.86,2.86-.57.89-1.35,1.62-2.33,2.19Zm-1.97-.25l1.78-1.03c1.21-.7,1.82-1.68,1.82-2.93v-7.39c0-1.26-.61-1.54-1.82-.84l-1.78,1.03c-1.2.69-1.8,1.67-1.8,2.93v7.39c0,1.25.6,1.54,1.8.85Z"/>
            <path class="cls-15" d="m227,284.84v-.87c0-.22.09-.43.26-.63l2.51-2.9c.23-.26.42-.44.56-.52l.91-.52c.2-.12.3-.07.3.13v13.33c0,.2-.1.36-.3.48l-.97.56c-.2.12-.3.07-.3-.13v-11.94l-2.58,2.97c-.26.3-.39.31-.39.05Z"/>
            <path class="cls-15" d="m271.22,267.67l-2.17,1.25c-.98.57-1.76.73-2.33.5-.57-.23-.86-.85-.86-1.87v-7.52c0-1,.29-1.95.86-2.85.57-.9,1.35-1.64,2.33-2.2l2.17-1.25c.98-.57,1.76-.73,2.33-.49.57.24.86.86.86,1.86v7.52c0,1.01-.29,1.96-.86,2.86s-1.35,1.62-2.33,2.19Zm-1.97-.25l1.78-1.03c1.21-.7,1.82-1.68,1.82-2.93v-7.39c0-1.26-.61-1.54-1.82-.84l-1.78,1.03c-1.2.69-1.8,1.67-1.8,2.92v7.39c0,1.25.6,1.54,1.8.85Z"/>
            <path class="cls-15" d="m163.5,250.8l-2.17,1.25c-.98.57-1.76.74-2.33.5-.57-.23-.86-.86-.86-1.87v-7.52c0-1,.29-1.95.86-2.85.57-.9,1.35-1.63,2.33-2.2l2.17-1.25c.98-.57,1.76-.73,2.33-.49s.86.86.86,1.86v7.52c0,1.01-.29,1.96-.86,2.86s-1.35,1.62-2.33,2.19Zm-1.97-.25l1.78-1.03c1.21-.7,1.82-1.68,1.82-2.94v-7.39c0-1.26-.61-1.54-1.82-.84l-1.78,1.03c-1.2.69-1.8,1.67-1.8,2.92v7.39c0,1.26.6,1.54,1.8.85Z"/>
            <path class="cls-4" d="m168.62,106.69v-.87c0-.22.09-.43.26-.63l2.51-2.9c.23-.26.42-.44.56-.52l.91-.52c.2-.12.3-.07.3.13v13.33c0,.2-.1.36-.3.48l-.97.56c-.2.12-.3.07-.3-.13v-11.94l-2.58,2.97c-.26.3-.39.31-.39.05Z"/>
            <path class="cls-4" d="m125.4,78.34v-.87c0-.22.09-.43.26-.63l2.51-2.9c.23-.26.42-.44.56-.52l.91-.52c.2-.12.3-.07.3.13v13.33c0,.2-.1.36-.3.48l-.97.56c-.2.12-.3.07-.3-.13v-11.94l-2.58,2.97c-.26.3-.39.31-.39.05Z"/>
            <path class="cls-4" d="m159.23,183.53l-2.17,1.25c-.98.57-1.76.73-2.33.5-.57-.23-.86-.85-.86-1.87v-7.52c0-1,.29-1.95.86-2.85s1.35-1.64,2.33-2.2l2.17-1.25c.98-.57,1.76-.73,2.33-.49.57.24.86.86.86,1.86v7.52c0,1.01-.29,1.96-.86,2.86-.57.89-1.35,1.62-2.33,2.19Zm-1.97-.25l1.78-1.03c1.21-.7,1.82-1.68,1.82-2.93v-7.39c0-1.26-.61-1.54-1.82-.84l-1.78,1.03c-1.2.69-1.8,1.67-1.8,2.92v7.39c0,1.25.6,1.54,1.8.85Z"/>
            <path class="cls-4" d="m236.39,134.3l-2.17,1.25c-.98.57-1.76.73-2.33.5s-.86-.85-.86-1.87v-7.52c0-1,.29-1.95.86-2.85s1.35-1.64,2.33-2.2l2.17-1.25c.98-.57,1.76-.73,2.33-.49.57.24.86.86.86,1.86v7.52c0,1.01-.29,1.96-.86,2.86s-1.35,1.62-2.33,2.19Zm-1.97-.25l1.78-1.03c1.21-.7,1.82-1.68,1.82-2.93v-7.39c0-1.26-.61-1.54-1.82-.84l-1.78,1.03c-1.2.69-1.8,1.67-1.8,2.92v7.39c0,1.25.6,1.54,1.8.85Z"/>
            <path class="cls-4" d="m200.6,170.03v-.87c0-.22.09-.43.26-.63l2.51-2.9c.23-.26.42-.44.56-.52l.91-.52c.2-.12.3-.07.3.13v13.33c0,.2-.1.36-.3.48l-.97.56c-.2.12-.3.07-.3-.13v-11.94l-2.58,2.97c-.26.3-.39.31-.39.05Z"/>
            <path class="cls-15" d="m176.97,209.74v-.87c0-.22.09-.43.26-.63l2.51-2.9c.23-.26.42-.44.56-.52l.91-.52c.2-.12.3-.07.3.13v13.33c0,.2-.1.36-.3.48l-.97.56c-.2.12-.3.07-.3-.13v-11.94l-2.58,2.97c-.26.3-.39.31-.39.05Z"/>
            <path class="cls-4" d="m233.46,240.04l-2.17,1.25c-.98.57-1.76.73-2.33.5-.57-.23-.86-.85-.86-1.87v-7.52c0-1,.29-1.95.86-2.85.57-.9,1.35-1.64,2.33-2.2l2.17-1.25c.98-.57,1.76-.73,2.33-.49.57.24.86.86.86,1.86v7.52c0,1.01-.29,1.96-.86,2.86-.57.89-1.35,1.62-2.33,2.19Zm-1.97-.25l1.78-1.03c1.21-.7,1.82-1.68,1.82-2.93v-7.39c0-1.26-.61-1.54-1.82-.84l-1.78,1.03c-1.2.69-1.8,1.67-1.8,2.92v7.39c0,1.25.6,1.54,1.8.85Z"/>
            <path class="cls-4" d="m276.87,204.03v-.87c0-.22.09-.43.26-.63l2.51-2.9c.23-.26.42-.44.56-.52l.91-.52c.2-.12.3-.07.3.13v13.33c0,.2-.1.36-.3.48l-.97.56c-.2.12-.3.07-.3-.13v-11.94l-2.58,2.97c-.26.3-.39.31-.39.05Z"/>
            <path class="cls-4" d="m290.86,247.97v-.87c0-.22.09-.43.26-.63l2.51-2.9c.23-.26.42-.44.56-.52l.91-.52c.2-.12.3-.07.3.13v13.33c0,.2-.1.36-.3.48l-.97.56c-.2.12-.3.07-.3-.13v-11.94l-2.58,2.97c-.26.3-.39.31-.39.05Z"/>
            <path class="cls-43" d="m217.88,327.06l-2.17,1.25c-.98.57-1.76.74-2.33.5s-.86-.86-.86-1.87v-7.52c0-1,.29-1.95.86-2.85s1.35-1.63,2.33-2.2l2.17-1.25c.98-.57,1.76-.73,2.33-.49s.86.86.86,1.86v7.52c0,1.01-.29,1.96-.86,2.86s-1.35,1.62-2.33,2.19Zm-1.97-.25l1.78-1.03c1.21-.7,1.82-1.68,1.82-2.94v-7.39c0-1.26-.61-1.54-1.82-.84l-1.78,1.03c-1.2.69-1.8,1.67-1.8,2.92v7.39c0,1.26.6,1.54,1.8.85Z"/>
            <path class="cls-4" d="m288.15,275.55v-.87c0-.21.09-.42.26-.63l2.51-2.9c.23-.26.42-.44.56-.52l.91-.52c.2-.12.3-.07.3.13v13.33c0,.2-.1.36-.3.48l-.97.56c-.2.12-.3.07-.3-.13v-11.94l-2.58,2.96c-.26.3-.39.31-.39.05Z"/>
            <path class="cls-43" d="m230.1,343.92v-.87c0-.21.09-.42.26-.63l2.51-2.9c.23-.26.42-.44.56-.52l.91-.52c.2-.12.3-.07.3.13v13.33c0,.2-.1.36-.3.48l-.97.56c-.2.12-.3.07-.3-.13v-11.94l-2.58,2.96c-.26.3-.39.31-.39.05Z"/>
            <path class="cls-4" d="m174.26,265.43l-2.17,1.25c-.98.57-1.76.74-2.33.5-.57-.23-.86-.86-.86-1.87v-7.52c0-1,.29-1.95.86-2.85.57-.9,1.35-1.63,2.33-2.2l2.17-1.25c.98-.57,1.76-.73,2.33-.49.57.24.86.86.86,1.86v7.52c0,1.01-.29,1.96-.86,2.86-.57.89-1.35,1.62-2.33,2.19Zm-1.97-.25l1.78-1.03c1.21-.7,1.82-1.68,1.82-2.94v-7.39c0-1.26-.61-1.54-1.82-.84l-1.78,1.03c-1.2.69-1.8,1.67-1.8,2.92v7.39c0,1.26.6,1.54,1.8.85Z"/>
          </g>
        </g>
        <path class="cls-26" d="m663.07,490.38c-.65,0-1.3-.16-1.9-.51l-170.5-98.44c-12.05-6.96-27.03-6.96-39.08,0l-59.04,34.09c-15.38,8.88-34.48,8.88-49.85,0l-67.1-38.74c-1.83-1.05-2.45-3.39-1.4-5.21,1.05-1.82,3.38-2.45,5.21-1.4l67.1,38.74c13.02,7.51,29.2,7.51,42.22,0l59.04-34.09c14.41-8.32,32.31-8.32,46.72,0l170.5,98.44c1.83,1.05,2.45,3.39,1.4,5.21-.71,1.22-1.99,1.91-3.31,1.91Z"/>
        <path class="cls-26" d="m311.25,736.79c-.65,0-1.3-.17-1.9-.51l-169.78-98.03c-9.98-5.76-15.94-16.08-15.94-27.61,0-11.53,5.96-21.85,15.94-27.62l56.91-32.85c4.14-2.39,6.62-6.68,6.62-11.46s-2.47-9.07-6.62-11.46l-112.77-65.1c-8.72-5.03-13.92-14.05-13.92-24.11s5.2-19.08,13.92-24.11l58.47-33.76c1.84-1.06,4.16-.43,5.21,1.4,1.05,1.83.43,4.16-1.4,5.21l-58.47,33.76c-6.33,3.65-10.1,10.2-10.1,17.5s3.78,13.85,10.1,17.5l112.77,65.1c6.53,3.77,10.43,10.53,10.43,18.07s-3.9,14.3-10.43,18.07l-56.91,32.86c-7.59,4.38-12.13,12.24-12.13,21s4.53,16.62,12.13,21l169.78,98.02c1.83,1.06,2.45,3.39,1.4,5.22-.71,1.22-1.99,1.91-3.31,1.91Z"/>
      </g>
      <g>
        <g class="cls-54">
          <path class="cls-38" d="m544.93,475.55l-.17,58.44c0,3.05,2,6.11,6.03,8.43l98.96,57.13c7.99,4.61,20.9,4.61,28.83,0l98.32-57.14c3.95-2.29,5.93-5.3,5.94-8.31l.17-58.44-238.08-.12Z"/>
          <path class="cls-8" d="m777,467.26c7.99,4.61,8.01,12.1.07,16.72l-98.32,57.14c-7.94,4.61-20.85,4.61-28.83,0l-98.96-57.13c-7.99-4.61-8.05-12.1-.12-16.71l98.32-57.14c7.94-4.61,20.89-4.61,28.88,0l98.96,57.13Z"/>
        </g>
        <g class="cls-53">
          <path class="cls-41" d="m564.51,229.05l.04,246.46c0,2.54,1.67,5.09,5.03,7.03l82.52,47.64c6.66,3.85,17.43,3.85,24.04,0l81.98-47.64c3.29-1.91,4.94-4.42,4.95-6.93l-.04-246.46-198.52-.1Z"/>
        </g>
        <path class="cls-45" d="m756.29,468.79c6.52,3.77,6.54,9.89.06,13.65l-80.3,46.67c-6.48,3.77-17.03,3.77-23.55,0l-80.83-46.67c-6.52-3.77-6.58-9.89-.1-13.65l80.3-46.67c6.48-3.77,17.06-3.77,23.59,0l80.83,46.67Z"/>
        <g>
          <path class="cls-27" d="m600.74,244.65v-.87c0-.22.09-.43.26-.63l2.51-2.9c.23-.26.42-.44.56-.52l.91-.52c.2-.12.3-.07.3.13v13.33c0,.2-.1.36-.3.48l-.97.56c-.2.12-.3.07-.3-.13v-11.94l-2.58,2.97c-.26.3-.39.31-.39.05Z"/>
          <path class="cls-27" d="m620.6,204.2l-2.17,1.25c-.98.57-1.76.73-2.33.5-.57-.23-.86-.85-.86-1.87v-7.52c0-1,.29-1.95.86-2.85.57-.9,1.35-1.64,2.33-2.2l2.17-1.25c.98-.57,1.76-.73,2.33-.49.57.24.86.86.86,1.86v7.52c0,1.01-.29,1.96-.86,2.86s-1.35,1.62-2.33,2.19Zm-1.97-.25l1.78-1.03c1.21-.7,1.82-1.68,1.82-2.93v-7.39c0-1.26-.61-1.54-1.82-.84l-1.78,1.03c-1.2.69-1.8,1.67-1.8,2.92v7.39c0,1.25.6,1.54,1.8.85Z"/>
          <path class="cls-27" d="m634.27,237.34v-.87c0-.22.09-.43.26-.63l2.51-2.9c.23-.26.42-.44.56-.52l.91-.52c.2-.12.3-.07.3.13v13.33c0,.2-.1.36-.3.48l-.97.56c-.2.12-.3.07-.3-.13v-11.94l-2.58,2.97c-.26.3-.39.31-.39.05Z"/>
          <path class="cls-27" d="m687.2,199.71v-.87c0-.22.09-.43.26-.63l2.51-2.9c.23-.26.42-.44.56-.52l.91-.52c.2-.12.3-.07.3.13v13.33c0,.2-.1.36-.3.48l-.97.56c-.2.12-.3.07-.3-.13v-11.94l-2.58,2.97c-.26.3-.39.31-.39.05Z"/>
          <path class="cls-43" d="m637.63,304.47l-2.17,1.25c-.98.57-1.76.73-2.33.5s-.86-.85-.86-1.87v-7.52c0-1,.29-1.95.86-2.85s1.35-1.64,2.33-2.2l2.17-1.25c.98-.57,1.76-.73,2.33-.49.57.24.86.86.86,1.86v7.52c0,1.01-.29,1.96-.86,2.86-.57.89-1.35,1.62-2.33,2.19Zm-1.97-.25l1.78-1.03c1.21-.7,1.82-1.68,1.82-2.93v-7.39c0-1.26-.61-1.54-1.82-.84l-1.78,1.03c-1.2.69-1.8,1.67-1.8,2.92v7.39c0,1.25.6,1.54,1.8.85Z"/>
          <path class="cls-27" d="m592.65,422.59v-.87c0-.22.09-.43.26-.63l2.51-2.9c.23-.26.42-.44.56-.52l.91-.52c.2-.12.3-.07.3.13v13.33c0,.2-.1.36-.3.48l-.97.56c-.2.12-.3.07-.3-.13v-11.94l-2.58,2.97c-.26.3-.39.31-.39.05Z"/>
          <path class="cls-27" d="m698.12,276.19v-.87c0-.22.09-.43.26-.63l2.51-2.9c.23-.26.42-.44.56-.52l.91-.52c.2-.12.3-.07.3.13v13.33c0,.2-.1.36-.3.48l-.97.56c-.2.12-.3.07-.3-.13v-11.94l-2.58,2.97c-.26.3-.39.31-.39.05Z"/>
          <path class="cls-27" d="m745.97,234.59v-.87c0-.22.09-.43.26-.63l2.51-2.9c.23-.26.42-.44.56-.52l.91-.52c.2-.12.3-.07.3.13v13.33c0,.2-.1.36-.3.48l-.97.56c-.2.12-.3.07-.3-.13v-11.94l-2.58,2.97c-.26.3-.39.31-.39.05Z"/>
          <path class="cls-27" d="m681.16,350.28v-.87c0-.22.09-.43.26-.63l2.51-2.9c.23-.26.42-.44.56-.52l.91-.52c.2-.12.3-.07.3.13v13.33c0,.2-.1.36-.3.48l-.97.56c-.2.12-.3.07-.3-.13v-11.94l-2.58,2.97c-.26.3-.39.31-.39.05Z"/>
          <path class="cls-43" d="m581.59,370.36l-2.17,1.25c-.98.57-1.76.73-2.33.5-.57-.23-.86-.85-.86-1.87v-7.52c0-1,.29-1.95.86-2.85.57-.9,1.35-1.64,2.33-2.2l2.17-1.25c.98-.57,1.76-.73,2.33-.49.57.24.86.86.86,1.86v7.52c0,1.01-.29,1.96-.86,2.86-.57.89-1.35,1.62-2.33,2.19Zm-1.97-.25l1.78-1.03c1.21-.7,1.82-1.68,1.82-2.93v-7.39c0-1.26-.61-1.54-1.82-.84l-1.78,1.03c-1.2.69-1.8,1.67-1.8,2.93v7.39c0,1.25.6,1.54,1.8.85Z"/>
          <path class="cls-4" d="m614.96,437.84v-.87c0-.22.09-.43.26-.63l2.51-2.9c.23-.26.42-.44.56-.52l.91-.52c.2-.12.3-.07.3.13v13.33c0,.2-.1.36-.3.48l-.97.56c-.2.12-.3.07-.3-.13v-11.94l-2.58,2.97c-.26.3-.39.31-.39.05Z"/>
          <path class="cls-27" d="m670.72,380.73l-2.17,1.25c-.98.57-1.76.73-2.33.5-.57-.23-.86-.85-.86-1.87v-7.52c0-1,.29-1.95.86-2.85.57-.9,1.35-1.64,2.33-2.2l2.17-1.25c.98-.57,1.76-.73,2.33-.49.57.24.86.86.86,1.86v7.52c0,1.01-.29,1.96-.86,2.86s-1.35,1.62-2.33,2.19Zm-1.97-.25l1.78-1.03c1.21-.7,1.82-1.68,1.82-2.93v-7.39c0-1.26-.61-1.54-1.82-.84l-1.78,1.03c-1.2.69-1.8,1.67-1.8,2.93v7.39c0,1.25.6,1.54,1.8.85Z"/>
          <path class="cls-27" d="m721.58,340.67v-.87c0-.22.09-.43.26-.63l2.51-2.9c.23-.26.42-.44.56-.52l.91-.52c.2-.12.3-.07.3.13v13.33c0,.2-.1.36-.3.48l-.97.56c-.2.12-.3.07-.3-.13v-11.94l-2.58,2.97c-.26.3-.39.31-.39.05Z"/>
          <path class="cls-27" d="m653.43,406.03v-.87c0-.22.09-.43.26-.63l2.51-2.9c.23-.26.42-.44.56-.52l.91-.52c.2-.12.3-.07.3.13v13.33c0,.2-.1.36-.3.48l-.97.56c-.2.12-.3.07-.3-.13v-11.94l-2.58,2.97c-.26.3-.39.31-.39.05Z"/>
          <path class="cls-43" d="m746.99,362.97l-2.17,1.25c-.98.57-1.76.73-2.33.5-.57-.23-.86-.85-.86-1.87v-7.52c0-1,.29-1.95.86-2.85s1.35-1.64,2.33-2.2l2.17-1.25c.98-.57,1.76-.73,2.33-.49.57.24.86.86.86,1.86v7.52c0,1.01-.29,1.96-.86,2.86s-1.35,1.62-2.33,2.19Zm-1.97-.25l1.78-1.03c1.21-.7,1.82-1.68,1.82-2.93v-7.39c0-1.26-.61-1.54-1.82-.84l-1.78,1.03c-1.2.69-1.8,1.67-1.8,2.93v7.39c0,1.25.6,1.54,1.8.85Z"/>
          <path class="cls-27" d="m747.99,377.45v-.87c0-.22.09-.43.26-.63l2.51-2.9c.23-.26.42-.44.56-.52l.91-.52c.2-.12.3-.07.3.13v13.33c0,.2-.1.36-.3.48l-.97.56c-.2.12-.3.07-.3-.13v-11.94l-2.58,2.97c-.26.3-.39.31-.39.05Z"/>
          <path class="cls-27" d="m653.43,484.07v-.87c0-.21.09-.42.26-.63l2.51-2.9c.23-.26.42-.44.56-.52l.91-.52c.2-.12.3-.07.3.13v13.33c0,.2-.1.36-.3.48l-.97.56c-.2.12-.3.07-.3-.13v-11.94l-2.58,2.96c-.26.3-.39.31-.39.05Z"/>
          <path class="cls-15" d="m670.72,250.93l-2.17,1.25c-.98.57-1.76.73-2.33.5s-.86-.85-.86-1.87v-7.52c0-1,.29-1.95.86-2.85s1.35-1.64,2.33-2.2l2.17-1.25c.98-.57,1.76-.73,2.33-.49.57.24.86.86.86,1.86v7.52c0,1.01-.29,1.96-.86,2.86-.57.89-1.35,1.62-2.33,2.19Zm-1.97-.25l1.78-1.03c1.21-.7,1.82-1.68,1.82-2.93v-7.39c0-1.26-.61-1.54-1.82-.84l-1.78,1.03c-1.2.69-1.8,1.67-1.8,2.92v7.39c0,1.25.6,1.54,1.8.85Z"/>
          <path class="cls-15" d="m701.04,248.49v-.87c0-.22.09-.43.26-.63l2.51-2.9c.23-.26.42-.44.56-.52l.91-.52c.2-.12.3-.07.3.13v13.33c0,.2-.1.36-.3.48l-.97.56c-.2.12-.3.07-.3-.13v-11.94l-2.58,2.97c-.26.3-.39.31-.39.05Z"/>
          <path class="cls-15" d="m670.72,328.97l-2.17,1.25c-.98.57-1.76.73-2.33.5-.57-.23-.86-.85-.86-1.87v-7.52c0-1,.29-1.95.86-2.85.57-.9,1.35-1.64,2.33-2.2l2.17-1.25c.98-.57,1.76-.73,2.33-.49.57.24.86.86.86,1.86v7.52c0,1.01-.29,1.96-.86,2.86s-1.35,1.62-2.33,2.19Zm-1.97-.25l1.78-1.03c1.21-.7,1.82-1.68,1.82-2.93v-7.39c0-1.26-.61-1.54-1.82-.84l-1.78,1.03c-1.2.69-1.8,1.67-1.8,2.93v7.39c0,1.25.6,1.54,1.8.85Z"/>
          <path class="cls-15" d="m728.72,295.48l-2.17,1.25c-.98.57-1.76.73-2.33.5-.57-.23-.86-.85-.86-1.87v-7.52c0-1,.29-1.95.86-2.85s1.35-1.64,2.33-2.2l2.17-1.25c.98-.57,1.76-.73,2.33-.49.57.24.86.86.86,1.86v7.52c0,1.01-.29,1.96-.86,2.86s-1.35,1.62-2.33,2.19Zm-1.97-.25l1.78-1.03c1.21-.7,1.82-1.68,1.82-2.93v-7.39c0-1.26-.61-1.54-1.82-.84l-1.78,1.03c-1.2.69-1.8,1.67-1.8,2.92v7.39c0,1.25.6,1.54,1.8.85Z"/>
          <path class="cls-15" d="m697.77,351.64l-2.17,1.25c-.98.57-1.76.73-2.33.5s-.86-.85-.86-1.87v-7.52c0-1,.29-1.95.86-2.85s1.35-1.64,2.33-2.2l2.17-1.25c.98-.57,1.76-.73,2.33-.49.57.24.86.86.86,1.86v7.52c0,1.01-.29,1.96-.86,2.86s-1.35,1.62-2.33,2.19Zm-1.97-.25l1.78-1.03c1.21-.7,1.82-1.68,1.82-2.93v-7.39c0-1.26-.61-1.54-1.82-.84l-1.78,1.03c-1.2.69-1.8,1.67-1.8,2.92v7.39c0,1.25.6,1.54,1.8.85Z"/>
          <path class="cls-15" d="m734.22,307.37v-.87c0-.22.09-.43.26-.63l2.51-2.9c.23-.26.42-.44.56-.52l.91-.52c.2-.12.3-.07.3.13v13.33c0,.2-.1.36-.3.48l-.97.56c-.2.12-.3.07-.3-.13v-11.94l-2.58,2.97c-.26.3-.39.31-.39.05Z"/>
          <path class="cls-15" d="m747.99,325.43v-.87c0-.22.09-.43.26-.63l2.51-2.9c.23-.26.42-.44.56-.52l.91-.52c.2-.12.3-.07.3.13v13.33c0,.2-.1.36-.3.48l-.97.56c-.2.12-.3.07-.3-.13v-11.94l-2.58,2.97c-.26.3-.39.31-.39.05Z"/>
          <path class="cls-15" d="m610.64,478.59l-2.17,1.25c-.98.57-1.76.73-2.33.5-.57-.23-.86-.85-.86-1.87v-7.52c0-1,.29-1.95.86-2.85.57-.9,1.35-1.64,2.33-2.2l2.17-1.25c.98-.57,1.76-.73,2.33-.49.57.24.86.86.86,1.86v7.52c0,1.01-.29,1.96-.86,2.86-.57.89-1.35,1.62-2.33,2.19Zm-1.97-.25l1.78-1.03c1.21-.7,1.82-1.68,1.82-2.93v-7.39c0-1.26-.61-1.54-1.82-.84l-1.78,1.03c-1.2.69-1.8,1.67-1.8,2.92v7.39c0,1.25.6,1.54,1.8.85Z"/>
          <path class="cls-15" d="m668.78,423.18v-.87c0-.22.09-.43.26-.63l2.51-2.9c.23-.26.42-.44.56-.52l.91-.52c.2-.12.3-.07.3.13v13.33c0,.2-.1.36-.3.48l-.97.56c-.2.12-.3.07-.3-.13v-11.94l-2.58,2.97c-.26.3-.39.31-.39.05Z"/>
          <path class="cls-15" d="m695.18,407.94v-.87c0-.22.09-.43.26-.63l2.51-2.9c.23-.26.42-.44.56-.52l.91-.52c.2-.12.3-.07.3.13v13.33c0,.2-.1.36-.3.48l-.97.56c-.2.12-.3.07-.3-.13v-11.94l-2.58,2.97c-.26.3-.39.31-.39.05Z"/>
          <path class="cls-15" d="m576.2,340l-2.17,1.25c-.98.57-1.76.73-2.33.5s-.86-.85-.86-1.87v-7.52c0-1,.29-1.95.86-2.85s1.35-1.64,2.33-2.2l2.17-1.25c.98-.57,1.76-.73,2.33-.49s.86.86.86,1.86v7.52c0,1.01-.29,1.96-.86,2.86s-1.35,1.62-2.33,2.19Zm-1.97-.25l1.78-1.03c1.21-.7,1.82-1.68,1.82-2.93v-7.39c0-1.26-.61-1.54-1.82-.84l-1.78,1.03c-1.2.69-1.8,1.67-1.8,2.92v7.39c0,1.25.6,1.54,1.8.85Z"/>
          <path class="cls-15" d="m691.57,462.05v-.87c0-.21.09-.42.26-.63l2.51-2.9c.23-.26.42-.44.56-.52l.91-.52c.2-.12.3-.07.3.13v13.33c0,.2-.1.36-.3.48l-.97.56c-.2.12-.3.07-.3-.13v-11.94l-2.58,2.96c-.26.3-.39.31-.39.05Z"/>
          <path class="cls-15" d="m716.41,368.54l-2.17,1.25c-.98.57-1.76.74-2.33.5s-.86-.86-.86-1.87v-7.52c0-1,.29-1.95.86-2.85s1.35-1.63,2.33-2.2l2.17-1.25c.98-.57,1.76-.73,2.33-.49.57.24.86.86.86,1.86v7.52c0,1.01-.29,1.96-.86,2.86s-1.35,1.62-2.33,2.19Zm-1.97-.25l1.78-1.03c1.21-.7,1.82-1.68,1.82-2.94v-7.39c0-1.26-.61-1.54-1.82-.84l-1.78,1.03c-1.2.69-1.8,1.67-1.8,2.92v7.39c0,1.26.6,1.54,1.8.85Z"/>
          <path class="cls-15" d="m653.43,510.08v-.87c0-.21.09-.42.26-.63l2.51-2.9c.23-.26.42-.44.56-.52l.91-.52c.2-.12.3-.07.3.13v13.33c0,.2-.1.36-.3.48l-.97.56c-.2.12-.3.07-.3-.13v-11.94l-2.58,2.96c-.26.3-.39.31-.39.05Z"/>
          <path class="cls-15" d="m718.42,470.41v-.87c0-.21.09-.42.26-.63l2.51-2.9c.23-.26.42-.44.56-.52l.91-.52c.2-.12.3-.07.3.13v13.33c0,.2-.1.36-.3.48l-.97.56c-.2.12-.3.07-.3-.13v-11.94l-2.58,2.96c-.26.3-.39.31-.39.06Z"/>
          <path class="cls-15" d="m745.27,457.05v-.87c0-.21.09-.42.26-.63l2.51-2.9c.23-.26.42-.44.56-.52l.91-.52c.2-.12.3-.07.3.13v13.33c0,.2-.1.36-.3.48l-.97.56c-.2.12-.3.07-.3-.13v-11.94l-2.58,2.96c-.26.3-.39.31-.39.06Z"/>
          <path class="cls-43" d="m593.74,303l-2.17,1.25c-.98.57-1.76.73-2.33.5-.57-.23-.86-.85-.86-1.87v-7.52c0-1,.29-1.95.86-2.85.57-.9,1.35-1.64,2.33-2.2l2.17-1.25c.98-.57,1.76-.73,2.33-.49.57.24.86.86.86,1.86v7.52c0,1.01-.29,1.96-.86,2.86-.57.89-1.35,1.62-2.33,2.19Zm-1.97-.25l1.78-1.03c1.21-.7,1.82-1.68,1.82-2.93v-7.39c0-1.26-.61-1.54-1.82-.84l-1.78,1.03c-1.2.69-1.8,1.67-1.8,2.92v7.39c0,1.25.6,1.54,1.8.85Z"/>
          <path class="cls-15" d="m670.27,225.18l-2.17,1.25c-.98.57-1.76.73-2.33.5-.57-.23-.86-.85-.86-1.87v-7.52c0-1,.29-1.95.86-2.85.57-.9,1.35-1.64,2.33-2.2l2.17-1.25c.98-.57,1.76-.73,2.33-.49.57.24.86.86.86,1.86v7.52c0,1.01-.29,1.96-.86,2.86s-1.35,1.62-2.33,2.19Zm-1.97-.25l1.78-1.03c1.21-.7,1.82-1.68,1.82-2.93v-7.39c0-1.26-.61-1.54-1.82-.84l-1.78,1.03c-1.2.69-1.8,1.67-1.8,2.92v7.39c0,1.25.6,1.54,1.8.85Z"/>
          <path class="cls-15" d="m718.42,212.45v-.87c0-.22.09-.43.26-.63l2.51-2.9c.23-.26.42-.44.56-.52l.91-.52c.2-.12.3-.07.3.13v13.33c0,.2-.1.36-.3.48l-.97.56c-.2.12-.3.07-.3-.13v-11.94l-2.58,2.97c-.26.3-.39.31-.39.05Z"/>
          <path class="cls-15" d="m679.38,261v-.87c0-.22.09-.43.26-.63l2.51-2.9c.23-.26.42-.44.56-.52l.91-.52c.2-.12.3-.07.3.13v13.33c0,.2-.1.36-.3.48l-.97.56c-.2.12-.3.07-.3-.13v-11.94l-2.58,2.97c-.26.3-.39.31-.39.05Z"/>
          <path class="cls-15" d="m632.08,476.75v-.87c0-.22.09-.43.26-.63l2.51-2.9c.23-.26.42-.44.56-.52l.91-.52c.2-.12.3-.07.3.13v13.33c0,.2-.1.36-.3.48l-.97.56c-.2.12-.3.07-.3-.13v-11.94l-2.58,2.97c-.26.3-.39.31-.39.05Z"/>
          <path class="cls-15" d="m697.57,313.46l-2.17,1.25c-.98.57-1.76.73-2.33.5s-.86-.85-.86-1.87v-7.52c0-1,.29-1.95.86-2.85s1.35-1.64,2.33-2.2l2.17-1.25c.98-.57,1.76-.73,2.33-.49.57.24.86.86.86,1.86v7.52c0,1.01-.29,1.96-.86,2.86-.57.89-1.35,1.62-2.33,2.19Zm-1.97-.25l1.78-1.03c1.21-.7,1.82-1.68,1.82-2.93v-7.39c0-1.26-.61-1.54-1.82-.84l-1.78,1.03c-1.2.69-1.8,1.67-1.8,2.92v7.39c0,1.25.6,1.54,1.8.85Z"/>
          <path class="cls-15" d="m576.21,280.81l-2.17,1.25c-.98.57-1.76.73-2.33.5s-.86-.85-.86-1.87v-7.52c0-1,.29-1.95.86-2.85.57-.9,1.35-1.64,2.33-2.2l2.17-1.25c.98-.57,1.76-.73,2.33-.49.57.24.86.86.86,1.86v7.52c0,1.01-.29,1.96-.86,2.86s-1.35,1.62-2.33,2.19Zm-1.97-.25l1.78-1.03c1.21-.7,1.82-1.68,1.82-2.93v-7.39c0-1.26-.61-1.54-1.82-.84l-1.78,1.03c-1.2.69-1.8,1.67-1.8,2.92v7.39c0,1.25.6,1.54,1.8.85Z"/>
          <path class="cls-15" d="m579.79,395.26v-.87c0-.22.09-.43.26-.63l2.51-2.9c.23-.26.42-.44.56-.52l.91-.52c.2-.12.3-.07.3.13v13.33c0,.2-.1.36-.3.48l-.97.56c-.2.12-.3.07-.3-.13v-11.94l-2.58,2.97c-.26.3-.39.31-.39.05Z"/>
          <path class="cls-15" d="m745.97,276.19v-.87c0-.22.09-.43.26-.63l2.51-2.9c.23-.26.42-.44.56-.52l.91-.52c.2-.12.3-.07.3.13v13.33c0,.2-.1.36-.3.48l-.97.56c-.2.12-.3.07-.3-.13v-11.94l-2.58,2.97c-.26.3-.39.31-.39.05Z"/>
          <path class="cls-15" d="m725.33,323.45l-2.17,1.25c-.98.57-1.76.73-2.33.5s-.86-.85-.86-1.87v-7.52c0-1,.29-1.95.86-2.85.57-.9,1.35-1.64,2.33-2.2l2.17-1.25c.98-.57,1.76-.73,2.33-.49.57.24.86.86.86,1.86v7.52c0,1.01-.29,1.96-.86,2.86s-1.35,1.62-2.33,2.19Zm-1.97-.25l1.78-1.03c1.21-.7,1.82-1.68,1.82-2.93v-7.39c0-1.26-.61-1.54-1.82-.84l-1.78,1.03c-1.2.69-1.8,1.67-1.8,2.92v7.39c0,1.25.6,1.54,1.8.85Z"/>
          <path class="cls-15" d="m659.44,439.52l-2.17,1.25c-.98.57-1.76.73-2.33.5-.57-.23-.86-.85-.86-1.87v-7.52c0-1,.29-1.95.86-2.85.57-.9,1.35-1.64,2.33-2.2l2.17-1.25c.98-.57,1.76-.73,2.33-.49.57.24.86.86.86,1.86v7.52c0,1.01-.29,1.96-.86,2.86s-1.35,1.62-2.33,2.19Zm-1.97-.25l1.78-1.03c1.21-.7,1.82-1.68,1.82-2.93v-7.39c0-1.26-.61-1.54-1.82-.84l-1.78,1.03c-1.2.69-1.8,1.67-1.8,2.93v7.39c0,1.25.6,1.54,1.8.85Z"/>
          <path class="cls-15" d="m578.89,455.48l-2.17,1.25c-.98.57-1.76.73-2.33.5-.57-.23-.86-.85-.86-1.87v-7.52c0-1,.29-1.95.86-2.85.57-.9,1.35-1.64,2.33-2.2l2.17-1.25c.98-.57,1.76-.73,2.33-.49.57.24.86.86.86,1.86v7.52c0,1.01-.29,1.96-.86,2.86-.57.89-1.35,1.62-2.33,2.19Zm-1.97-.25l1.78-1.03c1.21-.7,1.82-1.68,1.82-2.93v-7.39c0-1.26-.61-1.54-1.82-.84l-1.78,1.03c-1.2.69-1.8,1.67-1.8,2.93v7.39c0,1.25.6,1.54,1.8.85Z"/>
          <path class="cls-15" d="m679.83,442.81v-.87c0-.22.09-.43.26-.63l2.51-2.9c.23-.26.42-.44.56-.52l.91-.52c.2-.12.3-.07.3.13v13.33c0,.2-.1.36-.3.48l-.97.56c-.2.12-.3.07-.3-.13v-11.94l-2.58,2.97c-.26.3-.39.31-.39.05Z"/>
          <path class="cls-15" d="m724.06,425.64l-2.17,1.25c-.98.57-1.76.73-2.33.5s-.86-.85-.86-1.87v-7.52c0-1,.29-1.95.86-2.85s1.35-1.64,2.33-2.2l2.17-1.25c.98-.57,1.76-.73,2.33-.49s.86.86.86,1.86v7.52c0,1.01-.29,1.96-.86,2.86s-1.35,1.62-2.33,2.19Zm-1.97-.25l1.78-1.03c1.21-.7,1.82-1.68,1.82-2.93v-7.39c0-1.26-.61-1.54-1.82-.84l-1.78,1.03c-1.2.69-1.8,1.67-1.8,2.92v7.39c0,1.25.6,1.54,1.8.85Z"/>
          <path class="cls-15" d="m616.33,408.77l-2.17,1.25c-.98.57-1.76.74-2.33.5s-.86-.86-.86-1.87v-7.52c0-1,.29-1.95.86-2.85s1.35-1.63,2.33-2.2l2.17-1.25c.98-.57,1.76-.73,2.33-.49s.86.86.86,1.86v7.52c0,1.01-.29,1.96-.86,2.86s-1.35,1.62-2.33,2.19Zm-1.97-.25l1.78-1.03c1.21-.7,1.82-1.68,1.82-2.94v-7.39c0-1.26-.61-1.54-1.82-.84l-1.78,1.03c-1.2.69-1.8,1.67-1.8,2.92v7.39c0,1.26.6,1.54,1.8.85Z"/>
          <path class="cls-4" d="m621.45,264.66v-.87c0-.22.09-.43.26-.63l2.51-2.9c.23-.26.42-.44.56-.52l.91-.52c.2-.12.3-.07.3.13v13.33c0,.2-.1.36-.3.48l-.97.56c-.2.12-.3.07-.3-.13v-11.94l-2.58,2.97c-.26.3-.39.31-.39.05Z"/>
          <path class="cls-4" d="m578.24,236.31v-.87c0-.22.09-.43.26-.63l2.51-2.9c.23-.26.42-.44.56-.52l.91-.52c.2-.12.3-.07.3.13v13.33c0,.2-.1.36-.3.48l-.97.56c-.2.12-.3.07-.3-.13v-11.94l-2.58,2.97c-.26.3-.39.31-.39.05Z"/>
          <path class="cls-4" d="m612.06,341.51l-2.17,1.25c-.98.57-1.76.73-2.33.5-.57-.23-.86-.85-.86-1.87v-7.52c0-1,.29-1.95.86-2.85.57-.9,1.35-1.64,2.33-2.2l2.17-1.25c.98-.57,1.76-.73,2.33-.49.57.24.86.86.86,1.86v7.52c0,1.01-.29,1.96-.86,2.86-.57.89-1.35,1.62-2.33,2.19Zm-1.97-.25l1.78-1.03c1.21-.7,1.82-1.68,1.82-2.93v-7.39c0-1.26-.61-1.54-1.82-.84l-1.78,1.03c-1.2.69-1.8,1.67-1.8,2.93v7.39c0,1.25.6,1.54,1.8.85Z"/>
          <path class="cls-4" d="m689.23,292.27l-2.17,1.25c-.98.57-1.76.73-2.33.5s-.86-.85-.86-1.87v-7.52c0-1,.29-1.95.86-2.85s1.35-1.64,2.33-2.2l2.17-1.25c.98-.57,1.76-.73,2.33-.49.57.24.86.86.86,1.86v7.52c0,1.01-.29,1.96-.86,2.86s-1.35,1.62-2.33,2.19Zm-1.97-.25l1.78-1.03c1.21-.7,1.82-1.68,1.82-2.93v-7.39c0-1.26-.61-1.54-1.82-.84l-1.78,1.03c-1.2.69-1.8,1.67-1.8,2.92v7.39c0,1.25.6,1.54,1.8.85Z"/>
          <path class="cls-4" d="m653.43,328v-.87c0-.22.09-.43.26-.63l2.51-2.9c.23-.26.42-.44.56-.52l.91-.52c.2-.12.3-.07.3.13v13.33c0,.2-.1.36-.3.48l-.97.56c-.2.12-.3.07-.3-.13v-11.94l-2.58,2.97c-.26.3-.39.31-.39.05Z"/>
          <path class="cls-15" d="m629.8,367.71v-.87c0-.22.09-.43.26-.63l2.51-2.9c.23-.26.42-.44.56-.52l.91-.52c.2-.12.3-.07.3.13v13.33c0,.2-.1.36-.3.48l-.97.56c-.2.12-.3.07-.3-.13v-11.94l-2.58,2.97c-.26.3-.39.31-.39.05Z"/>
          <path class="cls-4" d="m686.29,398.01l-2.17,1.25c-.98.57-1.76.73-2.33.5-.57-.23-.86-.85-.86-1.87v-7.52c0-1,.29-1.95.86-2.85.57-.9,1.35-1.64,2.33-2.2l2.17-1.25c.98-.57,1.76-.73,2.33-.49.57.24.86.86.86,1.86v7.52c0,1.01-.29,1.96-.86,2.86-.57.89-1.35,1.62-2.33,2.19Zm-1.97-.25l1.78-1.03c1.21-.7,1.82-1.68,1.82-2.93v-7.39c0-1.26-.61-1.54-1.82-.84l-1.78,1.03c-1.2.69-1.8,1.67-1.8,2.92v7.39c0,1.25.6,1.54,1.8.85Z"/>
          <path class="cls-4" d="m729.7,362v-.87c0-.22.09-.43.26-.63l2.51-2.9c.23-.26.42-.44.56-.52l.91-.52c.2-.12.3-.07.3.13v13.33c0,.2-.1.36-.3.48l-.97.56c-.2.12-.3.07-.3-.13v-11.94l-2.58,2.97c-.26.3-.39.31-.39.05Z"/>
          <path class="cls-4" d="m743.69,405.94v-.87c0-.22.09-.43.26-.63l2.51-2.9c.23-.26.42-.44.56-.52l.91-.52c.2-.12.3-.07.3.13v13.33c0,.2-.1.36-.3.48l-.97.56c-.2.12-.3.07-.3-.13v-11.94l-2.58,2.97c-.26.3-.39.31-.39.05Z"/>
          <path class="cls-43" d="m670.72,485.03l-2.17,1.25c-.98.57-1.76.74-2.33.5s-.86-.86-.86-1.87v-7.52c0-1,.29-1.95.86-2.85s1.35-1.63,2.33-2.2l2.17-1.25c.98-.57,1.76-.73,2.33-.49.57.24.86.86.86,1.86v7.52c0,1.01-.29,1.96-.86,2.86s-1.35,1.62-2.33,2.19Zm-1.97-.25l1.78-1.03c1.21-.7,1.82-1.68,1.82-2.94v-7.39c0-1.26-.61-1.54-1.82-.84l-1.78,1.03c-1.2.69-1.8,1.67-1.8,2.92v7.39c0,1.26.6,1.54,1.8.85Z"/>
          <path class="cls-4" d="m740.98,433.52v-.87c0-.21.09-.42.26-.63l2.51-2.9c.23-.26.42-.44.56-.52l.91-.52c.2-.12.3-.07.3.13v13.33c0,.2-.1.36-.3.48l-.97.56c-.2.12-.3.07-.3-.13v-11.94l-2.58,2.96c-.26.3-.39.31-.39.05Z"/>
          <path class="cls-43" d="m682.93,501.89v-.87c0-.21.09-.42.26-.63l2.51-2.9c.23-.26.42-.44.56-.52l.91-.52c.2-.12.3-.07.3.13v13.33c0,.2-.1.36-.3.48l-.97.56c-.2.12-.3.07-.3-.13v-11.94l-2.58,2.96c-.26.3-.39.31-.39.05Z"/>
          <path class="cls-4" d="m627.09,423.4l-2.17,1.25c-.98.57-1.76.74-2.33.5-.57-.23-.86-.86-.86-1.87v-7.52c0-1,.29-1.95.86-2.85.57-.9,1.35-1.63,2.33-2.2l2.17-1.25c.98-.57,1.76-.73,2.33-.49.57.24.86.86.86,1.86v7.52c0,1.01-.29,1.96-.86,2.86s-1.35,1.62-2.33,2.19Zm-1.97-.25l1.78-1.03c1.21-.7,1.82-1.68,1.82-2.94v-7.39c0-1.26-.61-1.54-1.82-.84l-1.78,1.03c-1.2.69-1.8,1.67-1.8,2.92v7.39c0,1.26.6,1.54,1.8.85Z"/>
        </g>
      </g>
      <path class="cls-26" d="m586.87,533.71c0,7.66,6.21,17.45,13.87,21.87,7.66,4.42,13.87,1.8,13.87-5.86s-6.21-17.45-13.87-21.87c-7.66-4.42-13.87-1.8-13.87,5.86Z"/>
      <path class="cls-26" d="m383.82,746.43c-1.32,0-2.6-.69-3.31-1.91-1.05-1.83-.43-4.16,1.4-5.21l149.86-86.52c1.99-1.15,3.18-3.2,3.18-5.5s-1.19-4.35-3.18-5.5l-35.01-20.22c-4.38-2.53-6.99-7.06-6.99-12.11s2.62-9.58,6.99-12.11l102.07-58.93c1.84-1.06,4.16-.43,5.21,1.4,1.05,1.83.43,4.16-1.4,5.21l-102.07,58.94c-1.99,1.15-3.18,3.2-3.18,5.5s1.19,4.36,3.18,5.5l35.01,20.22c4.38,2.53,6.99,7.06,6.99,12.11s-2.61,9.59-6.99,12.11l-149.86,86.52c-.6.34-1.26.51-1.9.51Z"/>
      <g>
        <g class="cls-54">
          <path class="cls-42" d="m228.99,747.15l-.17,58.44c0,3.05,2,6.11,6.03,8.43l98.96,57.13c7.99,4.61,20.9,4.61,28.83,0l98.32-57.14c3.95-2.29,5.93-5.3,5.94-8.31l.17-58.44-238.08-.12Z"/>
          <path class="cls-7" d="m461.06,738.86c7.99,4.61,8.01,12.1.07,16.71l-98.32,57.14c-7.94,4.61-20.85,4.61-28.83,0l-98.96-57.13c-7.99-4.61-8.05-12.1-.12-16.71l98.32-57.14c7.94-4.61,20.89-4.61,28.88,0l98.96,57.13Z"/>
        </g>
        <g class="cls-57">
          <path class="cls-21" d="m248.57,500.65l.04,246.46c0,2.54,1.67,5.09,5.03,7.03l82.52,47.64c6.66,3.85,17.43,3.85,24.04,0l81.98-47.64c3.29-1.91,4.94-4.42,4.95-6.93l-.04-246.46-198.52-.1Z"/>
        </g>
        <path class="cls-9" d="m440.35,740.39c6.52,3.77,6.54,9.89.06,13.65l-80.3,46.67c-6.48,3.77-17.03,3.77-23.55,0l-80.83-46.67c-6.52-3.77-6.58-9.89-.1-13.65l80.3-46.67c6.48-3.77,17.06-3.77,23.59,0l80.83,46.67Z"/>
        <g>
          <path class="cls-27" d="m284.8,516.25v-.87c0-.22.09-.43.26-.63l2.51-2.9c.23-.26.42-.44.56-.52l.91-.52c.2-.12.3-.07.3.13v13.33c0,.2-.1.36-.3.48l-.97.56c-.2.12-.3.07-.3-.13v-11.94l-2.58,2.97c-.26.3-.39.31-.39.05Z"/>
          <path class="cls-27" d="m304.66,475.8l-2.17,1.25c-.98.57-1.76.73-2.33.5s-.86-.85-.86-1.87v-7.52c0-1,.29-1.95.86-2.85s1.35-1.64,2.33-2.2l2.17-1.25c.98-.57,1.76-.73,2.33-.49.57.24.86.86.86,1.86v7.52c0,1.01-.29,1.96-.86,2.86-.57.89-1.35,1.62-2.33,2.19Zm-1.97-.25l1.78-1.03c1.21-.7,1.82-1.68,1.82-2.93v-7.39c0-1.26-.61-1.54-1.82-.84l-1.78,1.03c-1.2.69-1.8,1.67-1.8,2.92v7.39c0,1.25.6,1.54,1.8.85Z"/>
          <path class="cls-27" d="m318.33,508.94v-.87c0-.22.09-.43.26-.63l2.51-2.9c.23-.26.42-.44.56-.52l.91-.52c.2-.12.3-.07.3.13v13.33c0,.2-.1.36-.3.48l-.97.56c-.2.12-.3.07-.3-.13v-11.94l-2.58,2.97c-.26.3-.39.31-.39.05Z"/>
          <path class="cls-27" d="m371.26,471.31v-.87c0-.22.09-.43.26-.63l2.51-2.9c.23-.26.42-.44.56-.52l.91-.52c.2-.12.3-.07.3.13v13.33c0,.2-.1.36-.3.48l-.97.56c-.2.12-.3.07-.3-.13v-11.94l-2.58,2.97c-.26.3-.39.31-.39.05Z"/>
          <path class="cls-43" d="m321.69,576.07l-2.17,1.25c-.98.57-1.76.73-2.33.5-.57-.23-.86-.85-.86-1.87v-7.52c0-1,.29-1.95.86-2.85.57-.9,1.35-1.64,2.33-2.2l2.17-1.25c.98-.57,1.76-.73,2.33-.49.57.24.86.86.86,1.86v7.52c0,1.01-.29,1.96-.86,2.86s-1.35,1.62-2.33,2.19Zm-1.97-.25l1.78-1.03c1.21-.7,1.82-1.68,1.82-2.93v-7.39c0-1.26-.61-1.54-1.82-.84l-1.78,1.03c-1.2.69-1.8,1.67-1.8,2.93v7.39c0,1.25.6,1.54,1.8.85Z"/>
          <path class="cls-27" d="m276.71,694.19v-.87c0-.22.09-.43.26-.63l2.51-2.9c.23-.26.42-.44.56-.52l.91-.52c.2-.12.3-.07.3.13v13.33c0,.2-.1.36-.3.48l-.97.56c-.2.12-.3.07-.3-.13v-11.94l-2.58,2.97c-.26.3-.39.31-.39.05Z"/>
          <path class="cls-27" d="m382.18,547.79v-.87c0-.22.09-.43.26-.63l2.51-2.9c.23-.26.42-.44.56-.52l.91-.52c.2-.12.3-.07.3.13v13.33c0,.2-.1.36-.3.48l-.97.56c-.2.12-.3.07-.3-.13v-11.94l-2.58,2.97c-.26.3-.39.31-.39.05Z"/>
          <path class="cls-27" d="m430.03,506.19v-.87c0-.22.09-.43.26-.63l2.51-2.9c.23-.26.42-.44.56-.52l.91-.52c.2-.12.3-.07.3.13v13.33c0,.2-.1.36-.3.48l-.97.56c-.2.12-.3.07-.3-.13v-11.94l-2.58,2.97c-.26.3-.39.31-.39.05Z"/>
          <path class="cls-27" d="m365.22,621.87v-.87c0-.22.09-.43.26-.63l2.51-2.9c.23-.26.42-.44.56-.52l.91-.52c.2-.12.3-.07.3.13v13.33c0,.2-.1.36-.3.48l-.97.56c-.2.12-.3.07-.3-.13v-11.94l-2.58,2.97c-.26.3-.39.31-.39.05Z"/>
          <path class="cls-43" d="m265.65,641.96l-2.17,1.25c-.98.57-1.76.73-2.33.5s-.86-.85-.86-1.87v-7.52c0-1,.29-1.95.86-2.85s1.35-1.64,2.33-2.2l2.17-1.25c.98-.57,1.76-.73,2.33-.49.57.24.86.86.86,1.86v7.52c0,1.01-.29,1.96-.86,2.86s-1.35,1.62-2.33,2.19Zm-1.97-.25l1.78-1.03c1.21-.7,1.82-1.68,1.82-2.93v-7.39c0-1.26-.61-1.54-1.82-.84l-1.78,1.03c-1.2.69-1.8,1.67-1.8,2.92v7.39c0,1.25.6,1.54,1.8.85Z"/>
          <path class="cls-4" d="m299.03,709.44v-.87c0-.22.09-.43.26-.63l2.51-2.9c.23-.26.42-.44.56-.52l.91-.52c.2-.12.3-.07.3.13v13.33c0,.2-.1.36-.3.48l-.97.56c-.2.12-.3.07-.3-.13v-11.94l-2.58,2.97c-.26.3-.39.31-.39.05Z"/>
          <path class="cls-27" d="m354.78,652.33l-2.17,1.25c-.98.57-1.76.73-2.33.5s-.86-.85-.86-1.87v-7.52c0-1,.29-1.95.86-2.85s1.35-1.64,2.33-2.2l2.17-1.25c.98-.57,1.76-.73,2.33-.49s.86.86.86,1.86v7.52c0,1.01-.29,1.96-.86,2.86s-1.35,1.62-2.33,2.19Zm-1.97-.25l1.78-1.03c1.21-.7,1.82-1.68,1.82-2.93v-7.39c0-1.26-.61-1.54-1.82-.84l-1.78,1.03c-1.2.69-1.8,1.67-1.8,2.92v7.39c0,1.25.6,1.54,1.8.85Z"/>
          <path class="cls-27" d="m405.65,612.27v-.87c0-.22.09-.43.26-.63l2.51-2.9c.23-.26.42-.44.56-.52l.91-.52c.2-.12.3-.07.3.13v13.33c0,.2-.1.36-.3.48l-.97.56c-.2.12-.3.07-.3-.13v-11.94l-2.58,2.97c-.26.3-.39.31-.39.05Z"/>
          <path class="cls-27" d="m337.5,677.63v-.87c0-.22.09-.43.26-.63l2.51-2.9c.23-.26.42-.44.56-.52l.91-.52c.2-.12.3-.07.3.13v13.33c0,.2-.1.36-.3.48l-.97.56c-.2.12-.3.07-.3-.13v-11.94l-2.58,2.97c-.26.3-.39.31-.39.05Z"/>
          <path class="cls-43" d="m431.05,634.56l-2.17,1.25c-.98.57-1.76.73-2.33.5s-.86-.85-.86-1.87v-7.52c0-1,.29-1.95.86-2.85.57-.9,1.35-1.64,2.33-2.2l2.17-1.25c.98-.57,1.76-.73,2.33-.49.57.24.86.86.86,1.86v7.52c0,1.01-.29,1.96-.86,2.86-.57.89-1.35,1.62-2.33,2.19Zm-1.97-.25l1.78-1.03c1.21-.7,1.82-1.68,1.82-2.93v-7.39c0-1.26-.61-1.54-1.82-.84l-1.78,1.03c-1.2.69-1.8,1.67-1.8,2.92v7.39c0,1.25.6,1.54,1.8.85Z"/>
          <path class="cls-27" d="m432.05,649.05v-.87c0-.22.09-.43.26-.63l2.51-2.9c.23-.26.42-.44.56-.52l.91-.52c.2-.12.3-.07.3.13v13.33c0,.2-.1.36-.3.48l-.97.56c-.2.12-.3.07-.3-.13v-11.94l-2.58,2.97c-.26.3-.39.31-.39.05Z"/>
          <path class="cls-27" d="m337.5,755.67v-.87c0-.21.09-.42.26-.63l2.51-2.9c.23-.26.42-.44.56-.52l.91-.52c.2-.12.3-.07.3.13v13.33c0,.2-.1.36-.3.48l-.97.56c-.2.12-.3.07-.3-.13v-11.94l-2.58,2.96c-.26.3-.39.31-.39.05Z"/>
          <path class="cls-15" d="m354.78,522.53l-2.17,1.25c-.98.57-1.76.73-2.33.5-.57-.23-.86-.85-.86-1.87v-7.52c0-1,.29-1.95.86-2.85.57-.9,1.35-1.64,2.33-2.2l2.17-1.25c.98-.57,1.76-.73,2.33-.49.57.24.86.86.86,1.86v7.52c0,1.01-.29,1.96-.86,2.86s-1.35,1.62-2.33,2.19Zm-1.97-.25l1.78-1.03c1.21-.7,1.82-1.68,1.82-2.93v-7.39c0-1.26-.61-1.54-1.82-.84l-1.78,1.03c-1.2.69-1.8,1.67-1.8,2.93v7.39c0,1.25.6,1.54,1.8.85Z"/>
          <path class="cls-15" d="m385.1,520.09v-.87c0-.22.09-.43.26-.63l2.51-2.9c.23-.26.42-.44.56-.52l.91-.52c.2-.12.3-.07.3.13v13.33c0,.2-.1.36-.3.48l-.97.56c-.2.12-.3.07-.3-.13v-11.94l-2.58,2.97c-.26.3-.39.31-.39.05Z"/>
          <path class="cls-15" d="m354.78,600.57l-2.17,1.25c-.98.57-1.76.73-2.33.5s-.86-.85-.86-1.87v-7.52c0-1,.29-1.95.86-2.85.57-.9,1.35-1.64,2.33-2.2l2.17-1.25c.98-.57,1.76-.73,2.33-.49s.86.86.86,1.86v7.52c0,1.01-.29,1.96-.86,2.86s-1.35,1.62-2.33,2.19Zm-1.97-.25l1.78-1.03c1.21-.7,1.82-1.68,1.82-2.93v-7.39c0-1.26-.61-1.54-1.82-.84l-1.78,1.03c-1.2.69-1.8,1.67-1.8,2.92v7.39c0,1.25.6,1.54,1.8.85Z"/>
          <path class="cls-15" d="m412.78,567.08l-2.17,1.25c-.98.57-1.76.73-2.33.5-.57-.23-.86-.85-.86-1.87v-7.52c0-1,.29-1.95.86-2.85.57-.9,1.35-1.64,2.33-2.2l2.17-1.25c.98-.57,1.76-.73,2.33-.49.57.24.86.86.86,1.86v7.52c0,1.01-.29,1.96-.86,2.86s-1.35,1.62-2.33,2.19Zm-1.97-.25l1.78-1.03c1.21-.7,1.82-1.68,1.82-2.93v-7.39c0-1.26-.61-1.54-1.82-.84l-1.78,1.03c-1.2.69-1.8,1.67-1.8,2.93v7.39c0,1.25.6,1.54,1.8.85Z"/>
          <path class="cls-15" d="m381.83,623.23l-2.17,1.25c-.98.57-1.76.73-2.33.5-.57-.23-.86-.85-.86-1.87v-7.52c0-1,.29-1.95.86-2.85.57-.9,1.35-1.64,2.33-2.2l2.17-1.25c.98-.57,1.76-.73,2.33-.49.57.24.86.86.86,1.86v7.52c0,1.01-.29,1.96-.86,2.86s-1.35,1.62-2.33,2.19Zm-1.97-.25l1.78-1.03c1.21-.7,1.82-1.68,1.82-2.93v-7.39c0-1.26-.61-1.54-1.82-.84l-1.78,1.03c-1.2.69-1.8,1.67-1.8,2.93v7.39c0,1.25.6,1.54,1.8.85Z"/>
          <path class="cls-15" d="m418.28,578.97v-.87c0-.22.09-.43.26-.63l2.51-2.9c.23-.26.42-.44.56-.52l.91-.52c.2-.12.3-.07.3.13v13.33c0,.2-.1.36-.3.48l-.97.56c-.2.12-.3.07-.3-.13v-11.94l-2.58,2.97c-.26.3-.39.31-.39.05Z"/>
          <path class="cls-15" d="m432.05,597.03v-.87c0-.22.09-.43.26-.63l2.51-2.9c.23-.26.42-.44.56-.52l.91-.52c.2-.12.3-.07.3.13v13.33c0,.2-.1.36-.3.48l-.97.56c-.2.12-.3.07-.3-.13v-11.94l-2.58,2.97c-.26.3-.39.31-.39.05Z"/>
          <path class="cls-15" d="m294.7,750.19l-2.17,1.25c-.98.57-1.76.73-2.33.5-.57-.23-.86-.85-.86-1.87v-7.52c0-1,.29-1.95.86-2.85.57-.9,1.35-1.64,2.33-2.2l2.17-1.25c.98-.57,1.76-.73,2.33-.49.57.24.86.86.86,1.86v7.52c0,1.01-.29,1.96-.86,2.86s-1.35,1.62-2.33,2.19Zm-1.97-.25l1.78-1.03c1.21-.7,1.82-1.68,1.82-2.93v-7.39c0-1.26-.61-1.54-1.82-.84l-1.78,1.03c-1.2.69-1.8,1.67-1.8,2.92v7.39c0,1.25.6,1.54,1.8.85Z"/>
          <path class="cls-15" d="m352.84,694.78v-.87c0-.22.09-.43.26-.63l2.51-2.9c.23-.26.42-.44.56-.52l.91-.52c.2-.12.3-.07.3.13v13.33c0,.2-.1.36-.3.48l-.97.56c-.2.12-.3.07-.3-.13v-11.94l-2.58,2.97c-.26.3-.39.31-.39.05Z"/>
          <path class="cls-15" d="m379.24,679.54v-.87c0-.22.09-.43.26-.63l2.51-2.9c.23-.26.42-.44.56-.52l.91-.52c.2-.12.3-.07.3.13v13.33c0,.2-.1.36-.3.48l-.97.56c-.2.12-.3.07-.3-.13v-11.94l-2.58,2.97c-.26.3-.39.31-.39.05Z"/>
          <path class="cls-15" d="m260.26,611.59l-2.17,1.25c-.98.57-1.76.73-2.33.5-.57-.23-.86-.85-.86-1.87v-7.52c0-1,.29-1.95.86-2.85s1.35-1.64,2.33-2.2l2.17-1.25c.98-.57,1.76-.73,2.33-.49.57.24.86.86.86,1.86v7.52c0,1.01-.29,1.96-.86,2.86s-1.35,1.62-2.33,2.19Zm-1.97-.25l1.78-1.03c1.21-.7,1.82-1.68,1.82-2.93v-7.39c0-1.26-.61-1.54-1.82-.84l-1.78,1.03c-1.2.69-1.8,1.67-1.8,2.93v7.39c0,1.25.6,1.54,1.8.85Z"/>
          <path class="cls-15" d="m375.63,733.65v-.87c0-.21.09-.42.26-.63l2.51-2.9c.23-.26.42-.44.56-.52l.91-.52c.2-.12.3-.07.3.13v13.33c0,.2-.1.36-.3.48l-.97.56c-.2.12-.3.07-.3-.13v-11.94l-2.58,2.96c-.26.3-.39.31-.39.06Z"/>
          <path class="cls-15" d="m400.47,640.14l-2.17,1.25c-.98.57-1.76.74-2.33.5-.57-.23-.86-.86-.86-1.87v-7.52c0-1,.29-1.95.86-2.85s1.35-1.63,2.33-2.2l2.17-1.25c.98-.57,1.76-.73,2.33-.49.57.24.86.86.86,1.86v7.52c0,1.01-.29,1.96-.86,2.86-.57.89-1.35,1.62-2.33,2.19Zm-1.97-.25l1.78-1.03c1.21-.7,1.82-1.68,1.82-2.94v-7.39c0-1.26-.61-1.54-1.82-.84l-1.78,1.03c-1.2.69-1.8,1.67-1.8,2.93v7.39c0,1.26.6,1.54,1.8.85Z"/>
          <path class="cls-15" d="m337.5,781.68v-.87c0-.21.09-.42.26-.63l2.51-2.9c.23-.26.42-.44.56-.52l.91-.52c.2-.12.3-.07.3.13v13.33c0,.2-.1.36-.3.48l-.97.56c-.2.12-.3.07-.3-.13v-11.94l-2.58,2.96c-.26.3-.39.31-.39.05Z"/>
          <path class="cls-15" d="m402.48,742.01v-.87c0-.21.09-.42.26-.63l2.51-2.9c.23-.26.42-.44.56-.52l.91-.52c.2-.12.3-.07.3.13v13.33c0,.2-.1.36-.3.48l-.97.56c-.2.12-.3.07-.3-.13v-11.94l-2.58,2.96c-.26.3-.39.31-.39.05Z"/>
          <path class="cls-15" d="m429.34,728.65v-.87c0-.21.09-.42.26-.63l2.51-2.9c.23-.26.42-.44.56-.52l.91-.52c.2-.12.3-.07.3.13v13.33c0,.2-.1.36-.3.48l-.97.56c-.2.12-.3.07-.3-.13v-11.94l-2.58,2.96c-.26.3-.39.31-.39.05Z"/>
          <path class="cls-43" d="m277.8,574.59l-2.17,1.25c-.98.57-1.76.73-2.33.5s-.86-.85-.86-1.87v-7.52c0-1,.29-1.95.86-2.85s1.35-1.64,2.33-2.2l2.17-1.25c.98-.57,1.76-.73,2.33-.49.57.24.86.86.86,1.86v7.52c0,1.01-.29,1.96-.86,2.86-.57.89-1.35,1.62-2.33,2.19Zm-1.97-.25l1.78-1.03c1.21-.7,1.82-1.68,1.82-2.93v-7.39c0-1.26-.61-1.54-1.82-.84l-1.78,1.03c-1.2.69-1.8,1.67-1.8,2.92v7.39c0,1.25.6,1.54,1.8.85Z"/>
          <path class="cls-15" d="m354.33,496.78l-2.17,1.25c-.98.57-1.76.73-2.33.5-.57-.23-.86-.85-.86-1.87v-7.52c0-1,.29-1.95.86-2.85.57-.9,1.35-1.64,2.33-2.2l2.17-1.25c.98-.57,1.76-.73,2.33-.49.57.24.86.86.86,1.86v7.52c0,1.01-.29,1.96-.86,2.86-.57.89-1.35,1.62-2.33,2.19Zm-1.97-.25l1.78-1.03c1.21-.7,1.82-1.68,1.82-2.93v-7.39c0-1.26-.61-1.54-1.82-.84l-1.78,1.03c-1.2.69-1.8,1.67-1.8,2.92v7.39c0,1.25.6,1.54,1.8.85Z"/>
          <path class="cls-15" d="m402.48,484.04v-.87c0-.22.09-.43.26-.63l2.51-2.9c.23-.26.42-.44.56-.52l.91-.52c.2-.12.3-.07.3.13v13.33c0,.2-.1.36-.3.48l-.97.56c-.2.12-.3.07-.3-.13v-11.94l-2.58,2.97c-.26.3-.39.31-.39.05Z"/>
          <path class="cls-15" d="m363.44,532.59v-.87c0-.22.09-.43.26-.63l2.51-2.9c.23-.26.42-.44.56-.52l.91-.52c.2-.12.3-.07.3.13v13.33c0,.2-.1.36-.3.48l-.97.56c-.2.12-.3.07-.3-.13v-11.94l-2.58,2.97c-.26.3-.39.31-.39.05Z"/>
          <path class="cls-15" d="m316.14,748.35v-.87c0-.22.09-.43.26-.63l2.51-2.9c.23-.26.42-.44.56-.52l.91-.52c.2-.12.3-.07.3.13v13.33c0,.2-.1.36-.3.48l-.97.56c-.2.12-.3.07-.3-.13v-11.94l-2.58,2.97c-.26.3-.39.31-.39.05Z"/>
          <path class="cls-15" d="m381.63,585.06l-2.17,1.25c-.98.57-1.76.73-2.33.5-.57-.23-.86-.85-.86-1.87v-7.52c0-1,.29-1.95.86-2.85.57-.9,1.35-1.64,2.33-2.2l2.17-1.25c.98-.57,1.76-.73,2.33-.49.57.24.86.86.86,1.86v7.52c0,1.01-.29,1.96-.86,2.86s-1.35,1.62-2.33,2.19Zm-1.97-.25l1.78-1.03c1.21-.7,1.82-1.68,1.82-2.93v-7.39c0-1.26-.61-1.54-1.82-.84l-1.78,1.03c-1.2.69-1.8,1.67-1.8,2.93v7.39c0,1.25.6,1.54,1.8.85Z"/>
          <path class="cls-15" d="m260.28,552.41l-2.17,1.25c-.98.57-1.76.73-2.33.5s-.86-.85-.86-1.87v-7.52c0-1,.29-1.95.86-2.85s1.35-1.64,2.33-2.2l2.17-1.25c.98-.57,1.76-.73,2.33-.49.57.24.86.86.86,1.86v7.52c0,1.01-.29,1.96-.86,2.86-.57.89-1.35,1.62-2.33,2.19Zm-1.97-.25l1.78-1.03c1.21-.7,1.82-1.68,1.82-2.93v-7.39c0-1.26-.61-1.54-1.82-.84l-1.78,1.03c-1.2.69-1.8,1.67-1.8,2.92v7.39c0,1.25.6,1.54,1.8.85Z"/>
          <path class="cls-15" d="m263.85,666.86v-.87c0-.22.09-.43.26-.63l2.51-2.9c.23-.26.42-.44.56-.52l.91-.52c.2-.12.3-.07.3.13v13.33c0,.2-.1.36-.3.48l-.97.56c-.2.12-.3.07-.3-.13v-11.94l-2.58,2.97c-.26.3-.39.31-.39.05Z"/>
          <path class="cls-15" d="m430.03,547.79v-.87c0-.22.09-.43.26-.63l2.51-2.9c.23-.26.42-.44.56-.52l.91-.52c.2-.12.3-.07.3.13v13.33c0,.2-.1.36-.3.48l-.97.56c-.2.12-.3.07-.3-.13v-11.94l-2.58,2.97c-.26.3-.39.31-.39.05Z"/>
          <path class="cls-15" d="m409.39,595.05l-2.17,1.25c-.98.57-1.76.73-2.33.5-.57-.23-.86-.85-.86-1.87v-7.52c0-1,.29-1.95.86-2.85.57-.9,1.35-1.64,2.33-2.2l2.17-1.25c.98-.57,1.76-.73,2.33-.49.57.24.86.86.86,1.86v7.52c0,1.01-.29,1.96-.86,2.86-.57.89-1.35,1.62-2.33,2.19Zm-1.97-.25l1.78-1.03c1.21-.7,1.82-1.68,1.82-2.93v-7.39c0-1.26-.61-1.54-1.82-.84l-1.78,1.03c-1.2.69-1.8,1.67-1.8,2.93v7.39c0,1.25.6,1.54,1.8.85Z"/>
          <path class="cls-15" d="m343.5,711.12l-2.17,1.25c-.98.57-1.76.73-2.33.5s-.86-.85-.86-1.87v-7.52c0-1,.29-1.95.86-2.85.57-.9,1.35-1.64,2.33-2.2l2.17-1.25c.98-.57,1.76-.73,2.33-.49.57.24.86.86.86,1.86v7.52c0,1.01-.29,1.96-.86,2.86s-1.35,1.62-2.33,2.19Zm-1.97-.25l1.78-1.03c1.21-.7,1.82-1.68,1.82-2.93v-7.39c0-1.26-.61-1.54-1.82-.84l-1.78,1.03c-1.2.69-1.8,1.67-1.8,2.92v7.39c0,1.25.6,1.54,1.8.85Z"/>
          <path class="cls-15" d="m262.95,727.08l-2.17,1.25c-.98.57-1.76.73-2.33.5s-.86-.85-.86-1.87v-7.52c0-1,.29-1.95.86-2.85.57-.9,1.35-1.64,2.33-2.2l2.17-1.25c.98-.57,1.76-.73,2.33-.49.57.24.86.86.86,1.86v7.52c0,1.01-.29,1.96-.86,2.86s-1.35,1.62-2.33,2.19Zm-1.97-.25l1.78-1.03c1.21-.7,1.82-1.68,1.82-2.93v-7.39c0-1.26-.61-1.54-1.82-.84l-1.78,1.03c-1.2.69-1.8,1.67-1.8,2.92v7.39c0,1.25.6,1.54,1.8.85Z"/>
          <path class="cls-15" d="m363.9,714.41v-.87c0-.22.09-.43.26-.63l2.51-2.9c.23-.26.42-.44.56-.52l.91-.52c.2-.12.3-.07.3.13v13.33c0,.2-.1.36-.3.48l-.97.56c-.2.12-.3.07-.3-.13v-11.94l-2.58,2.97c-.26.3-.39.31-.39.05Z"/>
          <path class="cls-15" d="m408.12,697.24l-2.17,1.25c-.98.57-1.76.73-2.33.5-.57-.23-.86-.85-.86-1.87v-7.52c0-1,.29-1.95.86-2.85.57-.9,1.35-1.64,2.33-2.2l2.17-1.25c.98-.57,1.76-.73,2.33-.49.57.24.86.86.86,1.86v7.52c0,1.01-.29,1.96-.86,2.86-.57.89-1.35,1.62-2.33,2.19Zm-1.97-.25l1.78-1.03c1.21-.7,1.82-1.68,1.82-2.93v-7.39c0-1.26-.61-1.54-1.82-.84l-1.78,1.03c-1.2.69-1.8,1.67-1.8,2.93v7.39c0,1.25.6,1.54,1.8.85Z"/>
          <path class="cls-15" d="m300.39,680.37l-2.17,1.25c-.98.57-1.76.74-2.33.5-.57-.23-.86-.86-.86-1.87v-7.52c0-1,.29-1.95.86-2.85s1.35-1.63,2.33-2.2l2.17-1.25c.98-.57,1.76-.73,2.33-.49.57.24.86.86.86,1.86v7.52c0,1.01-.29,1.96-.86,2.86-.57.89-1.35,1.62-2.33,2.19Zm-1.97-.25l1.78-1.03c1.21-.7,1.82-1.68,1.82-2.94v-7.39c0-1.26-.61-1.54-1.82-.84l-1.78,1.03c-1.2.69-1.8,1.67-1.8,2.93v7.39c0,1.26.6,1.54,1.8.85Z"/>
          <path class="cls-4" d="m305.52,536.26v-.87c0-.22.09-.43.26-.63l2.51-2.9c.23-.26.42-.44.56-.52l.91-.52c.2-.12.3-.07.3.13v13.33c0,.2-.1.36-.3.48l-.97.56c-.2.12-.3.07-.3-.13v-11.94l-2.58,2.97c-.26.3-.39.31-.39.05Z"/>
          <path class="cls-4" d="m262.3,507.91v-.87c0-.22.09-.43.26-.63l2.51-2.9c.23-.26.42-.44.56-.52l.91-.52c.2-.12.3-.07.3.13v13.33c0,.2-.1.36-.3.48l-.97.56c-.2.12-.3.07-.3-.13v-11.94l-2.58,2.97c-.26.3-.39.31-.39.05Z"/>
          <path class="cls-4" d="m296.12,613.1l-2.17,1.25c-.98.57-1.76.73-2.33.5s-.86-.85-.86-1.87v-7.52c0-1,.29-1.95.86-2.85.57-.9,1.35-1.64,2.33-2.2l2.17-1.25c.98-.57,1.76-.73,2.33-.49.57.24.86.86.86,1.86v7.52c0,1.01-.29,1.96-.86,2.86s-1.35,1.62-2.33,2.19Zm-1.97-.25l1.78-1.03c1.21-.7,1.82-1.68,1.82-2.93v-7.39c0-1.26-.61-1.54-1.82-.84l-1.78,1.03c-1.2.69-1.8,1.67-1.8,2.92v7.39c0,1.25.6,1.54,1.8.85Z"/>
          <path class="cls-4" d="m373.29,563.87l-2.17,1.25c-.98.57-1.76.73-2.33.5-.57-.23-.86-.85-.86-1.87v-7.52c0-1,.29-1.95.86-2.85.57-.9,1.35-1.64,2.33-2.2l2.17-1.25c.98-.57,1.76-.73,2.33-.49.57.24.86.86.86,1.86v7.52c0,1.01-.29,1.96-.86,2.86-.57.89-1.35,1.62-2.33,2.19Zm-1.97-.25l1.78-1.03c1.21-.7,1.82-1.68,1.82-2.93v-7.39c0-1.26-.61-1.54-1.82-.84l-1.78,1.03c-1.2.69-1.8,1.67-1.8,2.93v7.39c0,1.25.6,1.54,1.8.85Z"/>
          <path class="cls-4" d="m337.5,599.6v-.87c0-.22.09-.43.26-.63l2.51-2.9c.23-.26.42-.44.56-.52l.91-.52c.2-.12.3-.07.3.13v13.33c0,.2-.1.36-.3.48l-.97.56c-.2.12-.3.07-.3-.13v-11.94l-2.58,2.97c-.26.3-.39.31-.39.05Z"/>
          <path class="cls-15" d="m313.86,639.31v-.87c0-.22.09-.43.26-.63l2.51-2.9c.23-.26.42-.44.56-.52l.91-.52c.2-.12.3-.07.3.13v13.33c0,.2-.1.36-.3.48l-.97.56c-.2.12-.3.07-.3-.13v-11.94l-2.58,2.97c-.26.3-.39.31-.39.05Z"/>
          <path class="cls-4" d="m370.35,669.61l-2.17,1.25c-.98.57-1.76.73-2.33.5s-.86-.85-.86-1.87v-7.52c0-1,.29-1.95.86-2.85s1.35-1.64,2.33-2.2l2.17-1.25c.98-.57,1.76-.73,2.33-.49.57.24.86.86.86,1.86v7.52c0,1.01-.29,1.96-.86,2.86-.57.89-1.35,1.62-2.33,2.19Zm-1.97-.25l1.78-1.03c1.21-.7,1.82-1.68,1.82-2.93v-7.39c0-1.26-.61-1.54-1.82-.84l-1.78,1.03c-1.2.69-1.8,1.67-1.8,2.92v7.39c0,1.25.6,1.54,1.8.85Z"/>
          <path class="cls-4" d="m413.76,633.6v-.87c0-.22.09-.43.26-.63l2.51-2.9c.23-.26.42-.44.56-.52l.91-.52c.2-.12.3-.07.3.13v13.33c0,.2-.1.36-.3.48l-.97.56c-.2.12-.3.07-.3-.13v-11.94l-2.58,2.97c-.26.3-.39.31-.39.05Z"/>
          <path class="cls-4" d="m427.76,677.54v-.87c0-.22.09-.43.26-.63l2.51-2.9c.23-.26.42-.44.56-.52l.91-.52c.2-.12.3-.07.3.13v13.33c0,.2-.1.36-.3.48l-.97.56c-.2.12-.3.07-.3-.13v-11.94l-2.58,2.97c-.26.3-.39.31-.39.05Z"/>
          <path class="cls-43" d="m354.78,756.63l-2.17,1.25c-.98.57-1.76.74-2.33.5-.57-.23-.86-.86-.86-1.87v-7.52c0-1,.29-1.95.86-2.85.57-.9,1.35-1.63,2.33-2.2l2.17-1.25c.98-.57,1.76-.73,2.33-.49.57.24.86.86.86,1.86v7.52c0,1.01-.29,1.96-.86,2.86-.57.89-1.35,1.62-2.33,2.19Zm-1.97-.25l1.78-1.03c1.21-.7,1.82-1.68,1.82-2.94v-7.39c0-1.26-.61-1.54-1.82-.84l-1.78,1.03c-1.2.69-1.8,1.67-1.8,2.93v7.39c0,1.26.6,1.54,1.8.85Z"/>
          <path class="cls-4" d="m425.05,705.12v-.87c0-.21.09-.42.26-.63l2.51-2.9c.23-.26.42-.44.56-.52l.91-.52c.2-.12.3-.07.3.13v13.33c0,.2-.1.36-.3.48l-.97.56c-.2.12-.3.07-.3-.13v-11.94l-2.58,2.96c-.26.3-.39.31-.39.05Z"/>
          <path class="cls-43" d="m366.99,773.49v-.87c0-.21.09-.42.26-.63l2.51-2.9c.23-.26.42-.44.56-.52l.91-.52c.2-.12.3-.07.3.13v13.33c0,.2-.1.36-.3.48l-.97.56c-.2.12-.3.07-.3-.13v-11.94l-2.58,2.96c-.26.3-.39.31-.39.06Z"/>
          <path class="cls-4" d="m311.15,695l-2.17,1.25c-.98.57-1.76.74-2.33.5s-.86-.86-.86-1.87v-7.52c0-1,.29-1.95.86-2.85s1.35-1.63,2.33-2.2l2.17-1.25c.98-.57,1.76-.73,2.33-.49.57.24.86.86.86,1.86v7.52c0,1.01-.29,1.96-.86,2.86-.57.89-1.35,1.62-2.33,2.19Zm-1.97-.25l1.78-1.03c1.21-.7,1.82-1.68,1.82-2.94v-7.39c0-1.26-.61-1.54-1.82-.84l-1.78,1.03c-1.2.69-1.8,1.67-1.8,2.92v7.39c0,1.26.6,1.54,1.8.85Z"/>
        </g>
      </g>
      <path class="cls-26" d="m291.38,375.47c0,7.66-6.21,17.45-13.87,21.87-7.66,4.42-13.87,1.8-13.87-5.86s6.21-17.45,13.87-21.87c7.66-4.42,13.87-1.8,13.87,5.86Z"/>
      <path class="cls-26" d="m131.51,374.37c0,7.66,6.21,17.45,13.87,21.87,7.66,4.42,13.87,1.8,13.87-5.86s-6.21-17.45-13.87-21.87c-7.66-4.42-13.87-1.8-13.87,5.86Z"/>
      <g>
        <path class="cls-26" d="m273.58,807.58c0,7.66,6.21,17.45,13.87,21.87,7.66,4.42,13.87,1.8,13.87-5.86s-6.21-17.45-13.87-21.87c-7.66-4.42-13.87-1.8-13.87,5.86Z"/>
        <path class="cls-26" d="m-54.35,1059.45c-1.32,0-2.6-.69-3.31-1.91-1.06-1.83-.43-4.16,1.4-5.21l230.77-133.23c4.33-2.5,7.02-7.15,7.02-12.14l.02-22.14c0-7.71,4.16-14.89,10.84-18.75l93.16-53.79c1.83-1.05,4.16-.43,5.21,1.4,1.05,1.83.43,4.16-1.4,5.21l-93.16,53.79c-4.33,2.5-7.01,7.15-7.02,12.14l-.02,22.14c0,7.71-4.16,14.89-10.84,18.75l-230.77,133.23c-.6.34-1.26.51-1.9.51Z"/>
      </g>
      <g>
        <polygon class="cls-35" points="766.79 498.69 766.79 540.29 688.08 585.73 688.08 544.13 766.79 498.69"/>
        <g>
          <g>
            <path class="cls-11" d="m694.73,547.65c0,1.54,1.25,2.07,2.79,1.18s2.79-2.86,2.79-4.4-1.25-2.07-2.79-1.18c-1.54.89-2.79,2.86-2.79,4.4Z"/>
            <path class="cls-34" d="m704.51,542c0,1.54,1.25,2.07,2.79,1.18,1.54-.89,2.79-2.86,2.79-4.4s-1.25-2.07-2.79-1.18c-1.54.89-2.79,2.86-2.79,4.4Z"/>
            <path class="cls-22" d="m714.3,536.35c0,1.54,1.25,2.07,2.79,1.18,1.54-.89,2.79-2.86,2.79-4.4s-1.25-2.07-2.79-1.18c-1.54.89-2.79,2.86-2.79,4.4Z"/>
            <path class="cls-49" d="m724.08,530.7c0,1.54,1.25,2.07,2.79,1.18,1.54-.89,2.79-2.86,2.79-4.4s-1.25-2.07-2.79-1.18c-1.54.89-2.79,2.86-2.79,4.4Z"/>
            <path class="cls-3" d="m733.86,525.06c0,1.54,1.25,2.07,2.79,1.18,1.54-.89,2.79-2.86,2.79-4.4s-1.25-2.07-2.79-1.18c-1.54.89-2.79,2.86-2.79,4.4Z"/>
            <path class="cls-17" d="m743.64,519.41c0,1.54,1.25,2.07,2.79,1.18s2.79-2.86,2.79-4.4-1.25-2.07-2.79-1.18c-1.54.89-2.79,2.86-2.79,4.4Z"/>
            <path class="cls-50" d="m753.42,513.76c0,1.54,1.25,2.07,2.79,1.18s2.79-2.86,2.79-4.4-1.25-2.07-2.79-1.18-2.79,2.86-2.79,4.4Z"/>
          </g>
          <g>
            <path class="cls-13" d="m694.73,570.16c0,1.54,1.25,2.07,2.79,1.18,1.54-.89,2.79-2.86,2.79-4.4s-1.25-2.07-2.79-1.18c-1.54.89-2.79,2.86-2.79,4.4Z"/>
            <path class="cls-16" d="m704.51,564.52c0,1.54,1.25,2.07,2.79,1.18,1.54-.89,2.79-2.86,2.79-4.4s-1.25-2.07-2.79-1.18-2.79,2.86-2.79,4.4Z"/>
            <path class="cls-24" d="m714.3,558.87c0,1.54,1.25,2.07,2.79,1.18,1.54-.89,2.79-2.86,2.79-4.4s-1.25-2.07-2.79-1.18-2.79,2.86-2.79,4.4Z"/>
            <path class="cls-14" d="m724.08,553.22c0,1.54,1.25,2.07,2.79,1.18,1.54-.89,2.79-2.86,2.79-4.4s-1.25-2.07-2.79-1.18c-1.54.89-2.79,2.86-2.79,4.4Z"/>
            <path class="cls-30" d="m733.86,547.57c0,1.54,1.25,2.07,2.79,1.18,1.54-.89,2.79-2.86,2.79-4.4s-1.25-2.07-2.79-1.18-2.79,2.86-2.79,4.4Z"/>
            <path class="cls-28" d="m743.64,541.92c0,1.54,1.25,2.07,2.79,1.18,1.54-.89,2.79-2.86,2.79-4.4s-1.25-2.07-2.79-1.18c-1.54.89-2.79,2.86-2.79,4.4Z"/>
            <path class="cls-1" d="m753.42,536.28c0,1.54,1.25,2.07,2.79,1.18,1.54-.89,2.79-2.86,2.79-4.4s-1.25-2.07-2.79-1.18c-1.54.89-2.79,2.86-2.79,4.4Z"/>
          </g>
        </g>
      </g>
      <g>
        <polygon class="cls-35" points="451.56 769.94 451.56 811.54 372.85 856.98 372.85 815.38 451.56 769.94"/>
        <g>
          <g>
            <path class="cls-12" d="m379.5,818.89c0,1.54,1.25,2.07,2.79,1.18,1.54-.89,2.79-2.86,2.79-4.4s-1.25-2.07-2.79-1.18c-1.54.89-2.79,2.86-2.79,4.4Z"/>
            <path class="cls-25" d="m389.28,813.25c0,1.54,1.25,2.07,2.79,1.18,1.54-.89,2.79-2.86,2.79-4.4s-1.25-2.07-2.79-1.18c-1.54.89-2.79,2.86-2.79,4.4Z"/>
            <path class="cls-33" d="m399.06,807.6c0,1.54,1.25,2.07,2.79,1.18,1.54-.89,2.79-2.86,2.79-4.4s-1.25-2.07-2.79-1.18c-1.54.89-2.79,2.86-2.79,4.4Z"/>
            <path class="cls-44" d="m408.84,801.95c0,1.54,1.25,2.07,2.79,1.18,1.54-.89,2.79-2.86,2.79-4.4s-1.25-2.07-2.79-1.18c-1.54.89-2.79,2.86-2.79,4.4Z"/>
            <path class="cls-2" d="m418.63,796.3c0,1.54,1.25,2.07,2.79,1.18,1.54-.89,2.79-2.86,2.79-4.4s-1.25-2.07-2.79-1.18c-1.54.89-2.79,2.86-2.79,4.4Z"/>
            <path class="cls-51" d="m428.41,790.65c0,1.54,1.25,2.07,2.79,1.18,1.54-.89,2.79-2.86,2.79-4.4s-1.25-2.07-2.79-1.18c-1.54.89-2.79,2.86-2.79,4.4Z"/>
            <path class="cls-46" d="m438.19,785.01c0,1.54,1.25,2.07,2.79,1.18,1.54-.89,2.79-2.86,2.79-4.4s-1.25-2.07-2.79-1.18c-1.54.89-2.79,2.86-2.79,4.4Z"/>
          </g>
          <g>
            <path class="cls-40" d="m379.5,841.41c0,1.54,1.25,2.07,2.79,1.18,1.54-.89,2.79-2.86,2.79-4.4s-1.25-2.07-2.79-1.18c-1.54.89-2.79,2.86-2.79,4.4Z"/>
            <path class="cls-32" d="m389.28,835.76c0,1.54,1.25,2.07,2.79,1.18,1.54-.89,2.79-2.86,2.79-4.4s-1.25-2.07-2.79-1.18c-1.54.89-2.79,2.86-2.79,4.4Z"/>
            <path class="cls-39" d="m399.06,830.11c0,1.54,1.25,2.07,2.79,1.18,1.54-.89,2.79-2.86,2.79-4.4s-1.25-2.07-2.79-1.18c-1.54.89-2.79,2.86-2.79,4.4Z"/>
            <path class="cls-36" d="m408.84,824.47c0,1.54,1.25,2.07,2.79,1.18,1.54-.89,2.79-2.86,2.79-4.4s-1.25-2.07-2.79-1.18c-1.54.89-2.79,2.86-2.79,4.4Z"/>
            <path class="cls-31" d="m418.63,818.82c0,1.54,1.25,2.07,2.79,1.18,1.54-.89,2.79-2.86,2.79-4.4s-1.25-2.07-2.79-1.18c-1.54.89-2.79,2.86-2.79,4.4Z"/>
            <path class="cls-18" d="m428.41,813.17c0,1.54,1.25,2.07,2.79,1.18,1.54-.89,2.79-2.86,2.79-4.4s-1.25-2.07-2.79-1.18c-1.54.89-2.79,2.86-2.79,4.4Z"/>
            <path class="cls-47" d="m438.19,807.52c0,1.54,1.25,2.07,2.79,1.18,1.54-.89,2.79-2.86,2.79-4.4s-1.25-2.07-2.79-1.18c-1.54.89-2.79,2.86-2.79,4.4Z"/>
          </g>
        </g>
      </g>
    </g>
  </g>
</svg>